<?xml version="1.0" encoding="utf-8"?>
<!-- Generator: Adobe Illustrator 17.1.0, SVG Export Plug-In . SVG Version: 6.00 Build 0)  -->
<!DOCTYPE svg PUBLIC "-//W3C//DTD SVG 1.1//EN" "http://www.w3.org/Graphics/SVG/1.1/DTD/svg11.dtd">
<svg version="1.1" xmlns="http://www.w3.org/2000/svg" xmlns:xlink="http://www.w3.org/1999/xlink" x="0px" y="0px"
	 viewBox="0 0 130 50" enable-background="new 0 0 130 50" xml:space="preserve">  
<g id="_x33_20---Step-1" transform="translate(-97.000000, -2385.000000)">
              <g id="Media-Badges" transform="translate(0.000000, 2333.000000)">
                  <path id="BusinessInsider" fill="#606060" d="M137.5,80.2c0-2.7,2.4-4.2,5.2-4.2c1.7,0,3.3,0.5,4.6,1.3v2.7c-1.3-1-2.7-1.7-4.5-1.7
				c-1.6,0-2.7,0.6-2.7,1.9c0,1.1,0.7,1.6,2,2.1l2.5,0.9c2.4,0.9,3.5,2.3,3.5,4.5c0,2.8-2.4,4.4-5.6,4.4c-2.1,0-3.8-0.6-4.9-1.4
				v-2.8c1.4,1.1,3.1,1.8,4.9,1.8c1.8,0,3-0.6,3-2c0-1.2-0.8-1.7-2.2-2.2l-2.2-0.8C139.1,83.9,137.5,82.7,137.5,80.2z M155,91.8
				V76.2h2.6v15.5H155z M107.5,91.8V76.2h2.6v15.5H107.5z M165.3,76.2h6c4.6,0,7.5,3,7.5,7.8c0,4.7-3,7.8-7.5,7.8h-6V76.2z
				 M168,78.6v10.8h3.2c3.3,0,5-2.1,5-5.4c0-3.3-1.7-5.4-5-5.4H168z M184.4,76.2h9.4v2.3H187v3.7h6.1v2.3H187v4.8h6.8v2.3h-9.4V76.2
				z M201.7,76.2h5.6c3.2,0,5.3,1.6,5.3,4.7c0,2.6-1.2,4.1-3.6,4.5l5.6,6.4h-3l-5.4-6.3h-1.9v6.3h-2.6V76.2z M204.3,78.5v4.8h3
				c1.7,0,2.7-0.9,2.7-2.4c0-1.4-1-2.4-2.7-2.4H204.3z M132.6,56.3c0-2.8,2.4-4.3,5.3-4.3c1.8,0,3.4,0.5,4.6,1.3V56
				c-1.3-1-2.7-1.7-4.6-1.7c-1.6,0-2.8,0.6-2.8,1.9c0,1.2,0.7,1.6,2,2.1l2.5,0.9c2.4,0.9,3.6,2.3,3.6,4.6c0,2.9-2.4,4.5-5.6,4.5
				c-2.1,0-3.9-0.6-5-1.4v-2.8c1.4,1.2,3.1,1.8,5,1.8c1.8,0,3-0.6,3-2.1c0-1.2-0.8-1.7-2.2-2.3l-2.3-0.8
				C134.2,60,132.6,58.9,132.6,56.3z M212.3,56.3c0-2.8,2.4-4.3,5.3-4.3c1.8,0,3.4,0.5,4.6,1.3V56c-1.3-1-2.7-1.7-4.6-1.7
				c-1.6,0-2.8,0.6-2.8,1.9c0,1.2,0.7,1.6,2,2.1l2.5,0.9c2.4,0.9,3.6,2.3,3.6,4.6c0,2.9-2.4,4.5-5.6,4.5c-2.1,0-3.9-0.6-5-1.4v-2.8
				c1.4,1.2,3.1,1.8,5,1.8c1.8,0,3-0.6,3-2.1c0-1.2-0.8-1.7-2.2-2.3l-2.3-0.8C213.9,60,212.3,58.9,212.3,56.3z M196.3,56.3
				c0-2.8,2.4-4.3,5.3-4.3c1.8,0,3.4,0.5,4.6,1.3V56c-1.3-1-2.7-1.7-4.6-1.7c-1.6,0-2.8,0.6-2.8,1.9c0,1.2,0.7,1.6,2,2.1l2.5,0.9
				c2.4,0.9,3.6,2.3,3.6,4.6c0,2.9-2.4,4.5-5.6,4.5c-2.1,0-3.9-0.6-5-1.4v-2.8c1.4,1.2,3.1,1.8,5,1.8c1.8,0,3-0.6,3-2.1
				c0-1.2-0.8-1.7-2.2-2.3l-2.3-0.8C197.9,60,196.3,58.9,196.3,56.3z M180.8,52.3h9.5v2.4h-6.9v3.8h6.2v2.3h-6.2v4.9h6.9V68h-9.5
				V52.3z M97,52.3h5.5c3.3,0,5.3,1.5,5.3,4.3c0,1.7-0.9,2.9-2,3.3c1.5,0.5,2.5,2,2.5,3.6c0,3-2,4.5-5.3,4.5h-6V52.3z M99.6,54.6
				v4.3h2.9c1.8,0,2.8-0.7,2.8-2.2c0-1.5-1-2.1-2.8-2.1H99.6z M99.6,61.1v4.6h3.4c1.8,0,2.8-0.9,2.8-2.3c0-1.4-1-2.3-2.8-2.3H99.6z
				 M150.2,68V52.3h2.7V68H150.2z M123.9,52.3h2.7v9.5c0,4.3-2.5,6.5-6.3,6.5c-3.7,0-6.3-2.2-6.3-6.5v-9.5h2.7v9.2
				c0,3,1.3,4.4,3.6,4.4c2.3,0,3.6-1.4,3.6-4.4V52.3z M171.1,52.3h2.5v16l-10.8-10.5V68h-2.6V52l10.8,10.3V52.3z M117.7,91.8V76
				l10.7,10.2v-9.9h2.5V92l-10.7-10.3v10.1H117.7z"></path>
              </g>
          </g>
          </svg>