<?xml version="1.0" encoding="utf-8"?>
<!-- Generator: Adobe Illustrator 17.1.0, SVG Export Plug-In . SVG Version: 6.00 Build 0)  -->
<!DOCTYPE svg PUBLIC "-//W3C//DTD SVG 1.1//EN" "http://www.w3.org/Graphics/SVG/1.1/DTD/svg11.dtd">
<svg version="1.1" xmlns="http://www.w3.org/2000/svg" xmlns:xlink="http://www.w3.org/1999/xlink" x="0px" y="0px"
	 viewBox="0 0 90 40" enable-background="new 0 0 90 40" xml:space="preserve">  
<g id="_x33_20---Step-1" transform="translate(-118.000000, -2476.000000)">
              <g id="Media-Badges" transform="translate(0.000000, 2333.000000)">
                  <path id="CNN" fill="#606060" d="M138.6,143.1c-27.6,0-27.3,39.3,0.4,39.3h10.8c4.7,0,7.6-2.8,7.6-7.8v-10c0,0,6.1,10.1,8.5,14
				c4.1,6.7,13.9,5.4,13.8-3v-11c0,0,6.1,10.1,8.4,14c4.1,6.7,13.9,5.4,13.9-3v-32.5h-5V175c0,1.2-0.6,2.1-1.5,2.4
				c-0.9,0.3-1.9-0.1-2.5-0.9h0v0c0,0-13.1-20.9-16.4-26.3c0,0,0,0,0,0c0,0,0,0,0,0c-0.3-0.5-0.8-0.6-1.1-0.4
				c-0.4,0.1-0.7,0.4-0.7,1.2V175c0,1.2-0.6,2.2-1.5,2.5c-0.9,0.3-1.9-0.1-2.5-1v0h0c0,0-13.1-20.9-16.4-26.4
				c-0.3-0.5-0.8-0.6-1.2-0.5c-0.4,0.1-0.7,0.4-0.7,1.2v0v23.9c0,1.5-1.2,2.7-2.6,2.7h-11.6c-5.1,0-8.9-1.8-11.5-4.6
				c-2.5-2.8-3.8-6.4-3.8-10.1c0-3.6,1.3-7.3,3.7-10.1c2.5-2.8,6.2-4.6,11-4.6h7v-5L138.6,143.1L138.6,143.1z M152.6,143
				c-3.5,0.2-6.4,3.2-6.4,7.3V170c0,0.7-0.5,1.3-1.3,1.3h-6.1c-13.3,0-12.1-17-0.8-17h6.8v-4.9h-7c-4.5,0-7.8,1.7-10.1,4.2
				c-2.3,2.5-3.4,5.9-3.4,9.2c0,3.4,1.1,6.7,3.4,9.2c2.3,2.5,5.8,4.2,10.6,4.2h11.6c0.8,0,1.4-0.7,1.4-1.4v-23.9
				c0-1.2,0.7-2.2,1.6-2.5c0.9-0.3,2,0.1,2.6,1l0,0c3.3,5.4,16.3,26.3,16.4,26.4c0.4,0.5,0.8,0.6,1.1,0.5c0.3-0.1,0.6-0.4,0.6-1.3
				v-24.1c0-1.2,0.7-2.2,1.6-2.5c0.9-0.3,1.9,0.1,2.6,1v0h0c3.3,5.4,16.3,26.3,16.4,26.4c0.4,0.5,0.8,0.6,1.1,0.5
				c0.3-0.1,0.7-0.4,0.6-1.2v-31.8h-5v18.6c0,0-3-5.1-8-13.8c-5-8.5-14.3-5-14.3,2.3v11.4c0,0-2.9-5.1-8-13.8
				C158.3,144.2,155.3,142.8,152.6,143L152.6,143z"></path>
              </g>
          </g>
          </svg>