
        <svg xmlns="http://www.w3.org/2000/svg" xmlns:xlink="http://www.w3.org/1999/xlink" version="1.1" width="3187.5" 
        height="863.6749673131354" viewBox="0 -9.375 3187.5 863.6749673131354">
			
			<g transform="scale(9.375) translate(10, 10)">
				<defs id="SvgjsDefs2331"></defs><g id="SvgjsG2332" featureKey="symbolFeature-0" transform="matrix(0.35008438542231013,0,0,0.35008438542231013,12.942310541986568,-0.9418017294604536)" fill="#c30000"><defs xmlns="http://www.w3.org/2000/svg"></defs><g xmlns="http://www.w3.org/2000/svg"><path class="fil0" d="M93 185c-180,-131 -54,-231 10,-145 28,-68 124,-45 101,34 7,7 13,17 16,31 53,-47 136,56 -45,98 139,-45 92,-123 39,-88 -1,-10 -8,-19 -16,-25 -8,17 -21,37 -41,59 2,12 6,27 12,43 -7,-14 -13,-27 -17,-38 -12,13 -28,27 -46,41 18,-17 33,-33 44,-48 -17,-60 9,-86 34,-82 0,-48 -53,-57 -81,-8 -36,-51 -165,-24 -10,128zm62 -46c15,-21 23,-40 27,-56 -17,-2 -33,12 -27,56z" style="fill: #c30000;"></path></g></g><g id="SvgjsG2333" featureKey="nameFeature-0" transform="matrix(0.9104140414028901,0,0,0.9104140414028901,119.12599901256974,11.62127940706396)" fill="#c30000"><path d="M11.32 23.52 c0 8.24 4.8 11.2 7.36 11.2 c1.4 0 2.44 -1.04 2.44 -2.48 c0 -3.32 -4.2 -0.08 -4.2 -3.76 c0 -2.92 6.04 -3.12 8.08 -3.12 c7.52 0 7.96 2.12 7.96 3.28 c0 1.04 -0.88 1.76 -1.84 1.92 c-1.04 0.12 -1.12 0.32 -1.4 1.36 c-1.56 5.84 -7.2 8.64 -12.88 8.64 c-8.48 0 -15.88 -5.88 -15.88 -14.72 c0 -8.44 7.16 -14.44 15.72 -14.44 c3.52 0 5.44 1.08 6.48 1.08 c0.72 0 1.76 -0.6 2.48 -0.6 c2.48 0 3.96 4.08 3.96 6.12 c0 1.96 -1 3.96 -3.16 3.96 c-3.96 0 -3.96 -5.56 -9.4 -5.56 c-3.48 0 -5.72 2.88 -5.72 7.12 z M45.56 21.44 l0 11.16 c0 4.72 2.36 3 2.36 5.12 c0 2.72 -5.08 2.72 -6.88 2.72 c-6.88 0 -7.16 -1.56 -7.16 -2.52 c0 -1.44 1.64 -1.52 2.12 -2.76 c0.52 -1.4 0.6 -7.2 0.16 -8.68 c-0.36 -1.4 -2.4 -0.96 -2.4 -2.76 c0 -2.84 10.16 -4.04 10.56 -4.04 c1.2 0 1.24 0.92 1.24 1.76 z M45.36 14.48 c0 3.12 -5.44 3.92 -7.72 3.92 c-1.68 0 -3.48 -0.76 -3.48 -2.72 c0 -2.64 5.28 -3.72 7.32 -3.72 c1.6 0 3.88 0.52 3.88 2.52 z M58.16 37.64 l-6.68 -12.44 c-1.16 -2.2 -3.4 -0.96 -3.4 -3.12 c0 -1 0.52 -2.4 8.04 -2.4 c1.4 0 6.76 -0.08 6.76 2.04 c0 1.32 -1.52 1.6 -1.52 2.64 c0 0.92 1.48 3.92 2.48 3.92 c1.36 0 2.76 -3.4 2.76 -4.2 c0 -1 -1.36 -1.4 -1.36 -2.56 c0 -2 4.4 -1.84 5.6 -1.84 c1.16 0 4.16 0 4.16 1.76 c0 1.92 -2.6 1.04 -3.76 3.28 l-6.56 12.76 c-1.32 2.52 -2.4 3.08 -3.32 3.08 c-1.56 0 -2.56 -1.72 -3.2 -2.92 z M86.92 21.44 l0 11.16 c0 4.72 2.36 3 2.36 5.12 c0 2.72 -5.08 2.72 -6.88 2.72 c-6.88 0 -7.16 -1.56 -7.16 -2.52 c0 -1.44 1.64 -1.52 2.12 -2.76 c0.52 -1.4 0.6 -7.2 0.16 -8.68 c-0.36 -1.4 -2.4 -0.96 -2.4 -2.76 c0 -2.84 10.16 -4.04 10.56 -4.04 c1.2 0 1.24 0.92 1.24 1.76 z M86.72 14.48 c0 3.12 -5.44 3.92 -7.72 3.92 c-1.68 0 -3.48 -0.76 -3.48 -2.72 c0 -2.64 5.28 -3.72 7.32 -3.72 c1.6 0 3.88 0.52 3.88 2.52 z M102.68 25.4 l0 5.96 c0 2.68 1.12 3.32 2.2 3.32 c1.24 0 1.96 -0.92 2.68 -0.92 c0.8 0 1.36 1.12 1.36 1.84 c0 2.64 -4.56 4.96 -8.6 4.96 c-2.04 0 -7.16 -0.88 -7.16 -7.24 l0 -8.24 c0 -0.72 0 -1 -0.2 -1.12 s-0.64 -0.04 -1.56 -0.04 c-1.04 0 -1.56 0.04 -1.76 -0.16 c-0.28 -0.28 -0.2 -0.68 -0.2 -1.6 c0 -0.56 -0.12 -1 0.36 -1.32 l9.12 -5.8 c0.92 -0.56 0.88 -0.44 2.08 -0.44 c1.6 0 1.68 -0.16 1.68 1.68 c0 1.24 -0.08 2.48 0.12 2.96 c0.12 0.32 0.4 0.32 1.44 0.32 l2.8 0 c1.72 0 1.72 0.12 1.72 1.92 c0 2.28 -0.28 2.44 -1.84 2.44 l-2.76 0 c-1.4 0 -1.48 0.04 -1.48 1.48 z M120.36 31.4 c-1.36 0 -2.28 1.28 -2.28 2.56 c0 1.04 0.56 2.16 1.72 2.16 c1.52 0 1.64 -1.64 1.64 -2.84 c0 -0.88 0.04 -1.88 -1.08 -1.88 z M130.08 26.439999999999998 l0 4 c0 7.04 2.4 3.2 2.4 5.36 c0 2.28 -3.12 4.76 -6.04 4.76 c-3.16 0 -3.24 -2.04 -4.24 -2.04 c-0.48 0 -1 0.52 -1.88 1 c-0.88 0.52 -2.08 1.04 -3.92 1.04 c-3.32 0 -6.64 -1.76 -6.64 -5.72 c0 -2.84 2.72 -6.36 9.76 -6.36 c1.24 0 1.8 0.08 1.8 -1.36 c0 -1.32 -0.04 -4.08 -1.88 -4.08 c-2.4 0 -2.64 4.32 -6.2 4.32 c-1.28 0 -2.24 -0.92 -2.24 -2.2 c0 -3.4 6.76 -5.6 10.56 -5.6 c2.28 0 8.52 0.88 8.52 6.88 z M146 25.4 l0 5.96 c0 2.68 1.12 3.32 2.2 3.32 c1.24 0 1.96 -0.92 2.68 -0.92 c0.8 0 1.36 1.12 1.36 1.84 c0 2.64 -4.56 4.96 -8.6 4.96 c-2.04 0 -7.16 -0.88 -7.16 -7.24 l0 -8.24 c0 -0.72 0 -1 -0.2 -1.12 s-0.64 -0.04 -1.56 -0.04 c-1.04 0 -1.56 0.04 -1.76 -0.16 c-0.28 -0.28 -0.2 -0.68 -0.2 -1.6 c0 -0.56 -0.12 -1 0.36 -1.32 l9.12 -5.8 c0.92 -0.56 0.88 -0.44 2.08 -0.44 c1.6 0 1.68 -0.16 1.68 1.68 c0 1.24 -0.08 2.48 0.12 2.96 c0.12 0.32 0.4 0.32 1.44 0.32 l2.8 0 c1.72 0 1.72 0.12 1.72 1.92 c0 2.28 -0.28 2.44 -1.84 2.44 l-2.76 0 c-1.4 0 -1.48 0.04 -1.48 1.48 z M164.71999999999997 21.44 l0 11.16 c0 4.72 2.36 3 2.36 5.12 c0 2.72 -5.08 2.72 -6.88 2.72 c-6.88 0 -7.16 -1.56 -7.16 -2.52 c0 -1.44 1.64 -1.52 2.12 -2.76 c0.52 -1.4 0.6 -7.2 0.16 -8.68 c-0.36 -1.4 -2.4 -0.96 -2.4 -2.76 c0 -2.84 10.16 -4.04 10.56 -4.04 c1.2 0 1.24 0.92 1.24 1.76 z M164.51999999999998 14.48 c0 3.12 -5.44 3.92 -7.72 3.92 c-1.68 0 -3.48 -0.76 -3.48 -2.72 c0 -2.64 5.28 -3.72 7.32 -3.72 c1.6 0 3.88 0.52 3.88 2.52 z M179.2 40.56 c-5.92 0 -10.96 -3.48 -10.96 -9.8 c0 -7.16 6.28 -11.2 12.88 -11.2 c7 0 11 5.48 11 10.44 c0 6.56 -7.04 10.56 -12.92 10.56 z M182.92 33.04 c0 -1.8 -0.8 -8.76 -3.52 -8.76 c-1.32 0 -2.04 1.24 -1.96 2.4 c0.16 2.52 0.88 8.68 3.64 8.84 c1.52 0.08 1.84 -1.2 1.84 -2.48 z M204.75999999999996 30.240000000000002 l0 3.08 c0 3.88 1.36 3.2 1.36 4.72 c0 2.48 -5.32 2.4 -6.96 2.4 c-1.6 0 -5.68 0 -5.68 -2.4 c0 -1.92 1.84 -0.2 1.96 -4.12 l0.16 -6 c0.08 -2.96 -2.36 -2 -2.36 -4.12 s9.2 -4.12 10 -4.12 c0.88 0 1.44 0.76 1.44 1.56 c0 0.24 -0.04 0.48 -0.04 0.72 c0 0.48 0.2 1.04 0.8 1.04 c0.64 0 1 -0.84 1.8 -1.68 c0.8 -0.8 2 -1.64 4.28 -1.64 c8.28 0 6.88 8.12 7.28 14.2 c0.2 3.16 1.84 2.44 1.84 4.16 c0 0.72 0.16 2.4 -7.36 2.4 c-1.44 0 -5.28 0.08 -5.28 -2.16 c0 -1.44 1.32 -0.76 1.52 -3.36 c0.2 -2.84 1.32 -9.24 -2.44 -9.24 c-2.56 0 -2.32 2.76 -2.32 4.56 z"></path></g>
			</g>
		</svg>
	