<?xml version="1.0" encoding="utf-8"?>
<!-- Generator: Adobe Illustrator 17.1.0, SVG Export Plug-In . SVG Version: 6.00 Build 0)  -->
<!DOCTYPE svg PUBLIC "-//W3C//DTD SVG 1.1//EN" "http://www.w3.org/Graphics/SVG/1.1/DTD/svg11.dtd">
<svg version="1.1" xmlns="http://www.w3.org/2000/svg" xmlns:xlink="http://www.w3.org/1999/xlink" x="0px" y="0px"
	 viewBox="0 0 125 40" enable-background="new 0 0 125 40" xml:space="preserve">  
          <g id="_x33_20---Step-1" transform="translate(-99.000000, -2585.000000)">
              <g id="Media-Badges" transform="translate(0.000000, 2333.000000)">
                  <path id="Forbes" fill="#606060" d="M220.4,273.6c0.5,1,0.6,1.7,0.6,3.2c0,1.1-0.1,1.3-0.3,2.1c-0.8,2.4-2.7,4-5.5,4.8
				c-1,0.3-1.1,0.3-3,0.3c-1.1,0-2.2,0-2.4,0c-1.6-0.2-4-0.7-4.9-1.1l-0.4-0.2l-0.1-2c0-1.1-0.1-2.6-0.1-3.3l0-1.3l0.2-0.1
				c0.1-0.1,0.4-0.1,0.6-0.1l0.4,0l0.3,0.7c1.2,2.9,2.6,4.5,4.4,5c0.7,0.2,2,0.2,2.5,0c1.4-0.5,2.2-1.6,2.2-3.1c0-1.8-1-2.6-4.6-4
				c-2.3-0.9-3-1.3-4-2.3c-1-1-1.5-2.2-1.6-3.9c-0.1-2,0.5-3.7,1.9-5.1c1.4-1.4,3.2-2.2,5.6-2.4c2.2-0.2,5.5,0.3,7.2,1l0.3,0.1
				l0.1,1.8c0,1,0.1,2.3,0.1,2.9l0,1.1l-0.4,0.2c-0.7,0.2-0.7,0.2-1.1-0.8c-1-2.8-2.3-4.1-4.2-4.5c-1.2-0.2-2.1,0-2.8,0.8
				c-0.5,0.6-0.8,1.1-0.8,2c-0.1,0.9,0.1,1.5,0.7,2.1c0.7,0.8,1.9,1.5,4.2,2.4C218.3,271.1,219.7,272.1,220.4,273.6z M198.3,261.6
				c2.7,1.4,4.3,4.1,4.7,8c0.1,0.5,0.1,1.2,0.1,1.4l0,0.4l-6.5,0l-6.5,0l0,0.8c0.1,1.8,0.4,3.4,1.1,4.7c0.3,0.6,0.6,1,1.2,1.6
				c1.4,1.4,2.8,2,5,2c1.6,0,2.7-0.3,3.9-1.1c0.3-0.2,0.7-0.4,0.8-0.4c0.2,0,0.6,0.5,0.6,0.8c0,0.4-1.3,1.6-2.5,2.5
				c-1,0.7-2.6,1.3-4,1.5c-1,0.2-3.1,0.2-4.1,0c-4.4-0.8-7.5-3.9-8.5-8.4c-0.1-0.6-0.2-1.2-0.2-2.5c-0.1-2,0.1-3.2,0.6-4.8
				c1-3,2.8-5.1,5.3-6.3C192.2,260.5,195.9,260.4,198.3,261.6z M195.7,269.7l0.9-0.1l-0.1-1.4c-0.1-2.8-0.7-4.7-1.6-5.5
				c-0.4-0.3-0.8-0.5-1.2-0.5c-0.1,0-0.4,0.1-0.7,0.1c-0.4,0.1-0.6,0.3-1.1,0.7c-0.9,0.9-1.5,2.3-1.9,4.2c-0.2,0.8-0.3,2.4-0.3,2.5
				C190,269.9,193.9,269.8,195.7,269.7z M174.8,261.2c3.4,0.7,5.9,3.5,6.8,7.5c0.2,1,0.3,3.7,0.2,5c-0.1,1.1-0.5,2.6-0.9,3.6
				c-1.4,3.7-4.5,6.1-8.7,6.7c-0.9,0.1-3.9,0.2-5.2,0c-0.9-0.1-3.5-0.5-4.5-0.7l-0.6-0.1l0.1-3.4c0.1-8.3,0.1-12.8,0.1-17.2
				c-0.1-4.3-0.1-4.8-0.3-5.4c-0.2-0.8-0.5-1.4-0.9-1.6c-0.1-0.1-0.5-0.2-0.9-0.3c-1.1-0.2-1-0.2-1.1-0.7c0-0.3,0-0.5,0.1-0.5
				c0.1-0.1,9.1-1.8,9.3-1.8c0.1,0,0.1,1.1,0.1,5.1c0,2.8,0,5.1,0,5.1c0,0,0.4-0.1,0.7-0.3c1.1-0.5,2.2-0.8,3.7-0.8
				C173.8,261,174.3,261.1,174.8,261.2z M175,275.1c0.2-1.2,0.2-4.7,0-5.7c-0.5-3-1.6-4.9-3.2-5.7c-0.8-0.4-1.9-0.4-2.9-0.1
				l-0.7,0.2l-0.1,2.8c-0.1,3.5,0.1,15.4,0.2,15.6c0.1,0.1,0.2,0.1,0.4,0.2c0.8,0.1,1.7,0.1,2.1-0.1c0.6-0.2,1.5-0.8,2-1.4
				C173.9,279.6,174.6,277.6,175,275.1z M158.1,260.7c1.2,0,2.4,0.4,2.4,0.8c0,0.3-2.1,5.9-2.2,6c-0.1,0-0.5-0.1-0.9-0.4
				c-0.9-0.5-1.8-0.7-2.7-0.7c-1.1,0-2.3,0.4-2.7,0.9c-0.2,0.2-0.2,0.2-0.3,3.5c0,3.2,0.1,7.1,0.2,8.7c0.2,1.3,0.5,2,1.2,2.3
				c0.2,0.1,1.8,0.3,2.3,0.3c0,0,0.1,0.3,0,0.7l0,0.7l-6.5,0c-3.6,0-6.5,0-6.6-0.1c-0.1-0.1-0.1-0.3-0.1-0.7l0-0.6l0.3-0.1
				c0.2,0,0.5-0.1,0.8-0.2c0.8-0.2,1.3-0.6,1.6-1.5c0.2-0.7,0.3-3.1,0.3-7.8c0-5.8-0.1-7.2-0.7-7.9c-0.3-0.4-0.5-0.5-1.3-0.7
				c-0.4-0.1-0.8-0.2-0.9-0.2c-0.2,0-0.2-0.1-0.2-0.5c0-0.4,0-0.5,0.2-0.6c0.3-0.1,9-1.8,9.2-1.8h0.2l0,1.3c0,0.7-0.1,1.8-0.1,2.3
				l0,1l0.3-0.6c1-1.8,2.1-3,3.6-3.6C156.5,260.8,157.1,260.7,158.1,260.7z M142.3,270.5c0.1,1.2,0,3.7-0.2,4.7
				c-0.9,4.3-3.5,7.2-7.4,8.3c-0.4,0.1-1.1,0.3-1.4,0.3c-0.8,0.1-3.2,0.1-4,0c-2.1-0.3-4-1.2-5.4-2.6c-1.2-1.2-2-2.5-2.5-4.2
				c-0.9-2.8-0.9-6.3,0-9c0.9-2.6,2.8-4.9,5.1-6.1c3.3-1.6,7.9-1.5,10.9,0.2C140.1,263.8,141.8,266.6,142.3,270.5z M135.7,275.2
				c0.4-5.7-0.5-10.5-2.4-12.2c-0.8-0.8-2.1-1-3.1-0.6c-1.4,0.6-2.2,2.4-2.7,5.5c-0.3,2.2-0.3,6.6,0.1,8.6c0.5,3.2,1.5,5.1,3,5.8
				c0.6,0.3,1.6,0.2,2.2,0C134.5,281.5,135.4,279.3,135.7,275.2z M110.6,255l0,0.5c-0.1,0.9-0.2,6.4-0.2,9.1l0,2.6l0.8,0
				c0.4,0,1.3,0,2-0.1c0.9-0.1,1.2-0.1,1.6-0.3c1-0.5,1.6-1.4,2-3.1l0.2-0.8l0.7,0l0.7,0v5.3v5.3l-0.7,0l-0.7,0l-0.2-0.8
				c-0.4-1.6-1.1-2.7-2-3.1c-0.4-0.2-1.5-0.3-3.5-0.4l-0.9,0v2c0,2.2,0.1,5.1,0.3,6.7c0.2,2.2,0.8,3.4,1.8,3.9
				c0.2,0.1,0.8,0.2,1.4,0.3s1.1,0.2,1.2,0.2c0.2,0.1,0.2,1.3,0,1.3c-0.2,0.1-15.6,0.1-15.8,0c-0.1,0-0.1-0.2-0.1-0.7
				c0-0.7,0-0.7,1.4-1c1.1-0.2,1.5-0.4,1.9-1c0.9-1.2,1.1-3.5,1.1-13.2c0-9-0.2-10.9-1.1-12.3c-0.4-0.6-1.1-1-2.3-1.1l-0.9-0.1
				l0-0.7l0-0.7l0.3-0.1c0.2,0,5.7,0,12.4,0l12.1,0l0.1,0.4c0,0.2,0.1,2.2,0.1,4.4l0.1,4.1l-0.6,0.2c-0.9,0.3-0.9,0.3-1.4-0.8
				c-1-2.8-2.2-4.3-3.9-5.1c-1.1-0.6-1.6-0.6-4.8-0.6H110.6z"></path>
              </g>
          </g>
      
      </svg>