<?xml version="1.0" encoding="utf-8"?>
<!-- Generator: Adobe Illustrator 25.2.1, SVG Export Plug-In . SVG Version: 6.00 Build 0)  -->
<svg version="1.1" id="Hearts_Icon" xmlns="http://www.w3.org/2000/svg" xmlns:xlink="http://www.w3.org/1999/xlink" x="0px"
	 y="0px" viewBox="0 0 79.9 79.9" style="enable-background:new 0 0 79.9 79.9;" xml:space="preserve">
<style type="text/css">
	.st0{clip-path:url(#SVGID_2_);}
	.st1{fill:#C30000;}
</style>
<g>
	<defs>
		<rect id="SVGID_1_" y="7.6" width="79.9" height="64.6"/>
	</defs>
	<clipPath id="SVGID_2_">
		<use xlink:href="#SVGID_1_"  style="overflow:visible;"/>
	</clipPath>
	<g id="Group_11" class="st0">
		<path id="Path_14" class="st1" d="M60,22.1c-1.1-6.2-3.6-10.4-7.9-12.6c-2.4-1.2-5-1.8-7.7-1.9C42.3,7.4,38.9,8.7,37,10
			c-1.9,1.4-3.5,3.2-4.9,5.1c-0.9,1.4-1.7,2.9-2.1,4.5c0,0.6-0.4,0.4-1.3-0.6c-1.2-2-2.8-3.8-4.7-5.1c-1.1-0.9-2.3-1.7-2.6-1.9
			c-3.1-1.5-6.6-1.9-10-1.3c-1.5,0.2-3.8,1.3-3.8,1.7H7.4c-0.6,0.2-1.1,0.6-1.5,1.1c-1.5,1.5-2.7,3.3-3.6,5.3
			c-0.2,0.4-0.4,1.5-0.6,2.1C0,25.8-0.4,31,0.4,36.1c0.5,2.2,1.1,4.3,1.9,6.4c0.1,0.4,0.3,0.7,0.4,1.1c0.1,0.5,0.2,1,0.4,1.5
			c0.4,0.7,0.7,1.4,1.1,2.1C6.8,52.7,14.8,61,21.4,64.9c1.1,0.6,2.6,1.3,7.7,3c2.3,0.6,3,0.9,3.2,1.3c0.2,0.4,0,0.6-0.2,0.9
			c-0.2,0.2-0.2,0.4,0,0.2c0.4-0.2,0.9,0.4,1.5,1.3c0.4,0.9,0.9,1.1,0.9,0.4c0-0.2-0.4-0.6-0.6-1.3c-0.6-1.3-0.6-4.5,0.2-6.6
			c1.3-3.2,4.7-7.7,8.9-11.3c1.2-0.9,2.3-1.9,3.4-3c0.7-0.7,1.5-1.4,2.3-1.9c0.2-0.2,0.6-0.4,0.6-0.6c0.2-0.2,0.6-0.4,0.9-0.9
			c0.6-0.5,1.2-1.1,1.7-1.7c0.6-0.6,1.5-1.7,2.1-2.3c1.9-2.2,3.3-4.7,4.3-7.4c0.3-1,0.6-1.9,1.1-2.8C60.4,29.8,60.6,26.4,60,22.1
			 M57.4,17.4c0.4,0,0.4,0.4,0,0.9c-0.8,0.9-1.5,1.8-2.1,2.8c-0.6,0.9-1.2,1.7-1.9,2.6c0-0.2-0.1-0.3-0.2-0.4c0-0.4,0-0.6,0.2-0.9
			c0.2-0.2,0.4-0.6,0.6-0.9C54.4,20.6,57.2,17.2,57.4,17.4 M57,15.9c0.2,0.6,0.2,0.9,0,0.9c-0.7,0.7-1.3,1.5-1.9,2.3
			c-0.9,1.1-1.7,2.1-1.9,2.3c-0.4,0.6-0.6,0-0.2-0.9c0.1-0.5,0.3-0.9,0.6-1.3c0.8-1.4,1.8-2.7,2.8-4C56.5,15.3,56.8,15.5,57,15.9
			 M55.3,13.6c0.2,0,0.4,0.2,0.6,0.4c0.4,0.4,0.6,0.6,0.2,0.9c0,0.2-0.4,0.6-0.6,0.9c-0.2,0.4-0.9,0.9-1.1,1.3
			c-0.4,0.6-0.8,1.3-1.1,1.9c-0.6,1.1-1.1,1.5-1.1,1.1c0-0.6,1.9-3.8,3-4.9c0.4-0.6,0.6-0.9,0.4-1.1s-0.4,0-2.1,2.1
			c-0.4,0.6-1.1,1.7-1.3,2.1c-0.2,0.6-0.4,0.6-0.6,0.4c-0.2,0-0.2-0.2,0-0.2c0.2,0,0.4-0.2,0.4-0.4c0-0.4,0.2-0.9,1.9-3.2
			C54.6,14.2,55.1,13.6,55.3,13.6 M54.2,12.5c0.9-0.2,0.6,0.2-0.2,1.7c-0.6,0.6-1.1,1.3-1.3,1.5L51.9,17c-0.6,0.9-0.6,1.1-0.9,0.9
			c-0.1-0.1-0.2-0.3-0.2-0.4c0.3-0.3,0.5-0.7,0.6-1.1C52.2,15,53.1,13.7,54.2,12.5 M52.9,13.2c-0.9,1.1-1.5,2.1-1.9,2.8
			c-0.6,1.3-1.1,1.5-0.9,0.6c0.7-1.6,1.6-3,2.8-4.3C54.2,11,54.2,11.5,52.9,13.2 M50,9.3c0.2,0,0,0.2,0,0.4
			c-0.2,0.2-0.2,0.2-0.2-0.2C49.7,9.4,49.8,9.3,50,9.3C49.9,9.3,50,9.3,50,9.3 M48.9,8.9c0.2,0.2,0.2,0.4-0.6,2.3S47.2,14,47.6,14
			c0.2-0.3,0.4-0.6,0.6-0.9c0.4-0.9,0.4-0.6,0,0.4c-0.2,0.6-0.2,0.6,0,0.6c0,0,0.6-1.1,1.3-2.3s1.3-2.1,1.5-2.1
			c0.7,0.2,1.4,0.5,2.1,0.8c-0.3,0.6-0.6,1.2-1.1,1.7c-0.5,1-1.1,1.9-1.7,2.8c-0.3,0.4-0.5,0.7-0.9,1.1c-0.2,0-0.4-0.2-0.4-0.4
			c0.2,0,0.4-0.4,0.4-0.6c0.5-1.2,1.2-2.3,2.1-3.2c0.4-0.6,0.6-1.1,0.4-1.1c-0.4,0-2.6,3-3,4c-0.2,0.2-0.3,0.4-0.4,0.6l-1.3-0.4
			c-1.7-0.9-1.7-0.9-0.2-3.8C48.2,8.7,48.5,8.7,48.9,8.9 M43.8,8.3c1.1,0,1.3,0,0.6,0.4c-0.2,0.2-0.2,0.4-0.2,0.6
			c-0.2,0.8-0.5,1.6-0.9,2.3c-0.3,0.7-0.5,1.4-0.6,2.1c0.2,0.2,0.9-0.4,0.9-0.9c0.2-0.8,0.5-1.6,0.9-2.3l0.9-2.1
			c0-0.2,0.2-0.2,0.4-0.2c0.2,0,0.3,0.1,0.4,0.2c0.2,0-0.4,1.5-1.3,3c-0.9,1.7-1.1,2.3-0.6,2.3c0.2,0,0.4-0.4,0.6-0.6
			c0.1-0.4,0.3-0.8,0.6-1.1c0.1-0.3,0.2-0.6,0.2-0.9C45.5,11,47,8.7,47.2,8.7c0.4-0.2,0.4,0.2,0,0.6C47,9.3,47,9.6,47,9.8
			c-0.1,0.8-0.3,1.6-0.6,2.3L45.5,14h-2.1l-1.9,0.2v-0.9c0.4-0.8,0.6-1.5,0.9-2.3c0.9-1.5,0.9-1.9,0.6-1.9s-0.6,0.4-0.9,0.6
			c-0.1,0.8-0.4,1.6-0.6,2.3c-0.2,0.6-0.6,1.5-0.6,1.7c0,0.2-0.2,0.6-0.4,0.6h-0.6c-0.4,0.2-0.6,0.2-0.4-0.4
			c0.3-0.9,0.6-1.7,1.1-2.6c0.5-0.7,0.8-1.5,1.1-2.3C41.4,8.5,42.5,8.3,43.8,8.3 M39.3,9.8c0-0.2,0.2-0.4,0.6-0.6
			c0.2-0.1,0.4-0.2,0.6-0.2c0.2,0-0.2,0.9-0.4,1.7c-0.5,1-0.8,2.1-1.1,3.2c-0.4,1.3-1.3,2.1-1.5,1.5c0.3-1.5,0.7-2.9,1.3-4.3
			C39.1,10.6,39.2,10.2,39.3,9.8 M35.1,12.5c-0.2,0,0-0.4,1.1-1.1c1.5-1.3,2.3-1.9,2.6-1.7c-0.3,1.2-0.6,2.3-1.1,3.4
			c-0.9,2.8-0.9,3-1.7,3.8c-0.4,0.4-1.1,0.9-1.3,1.1c-0.4,0.4-0.4,0.4,0.2-2.8C35.5,12.3,35.5,12.7,35.1,12.5 M33.6,14.2
			c0.2-0.5,0.5-0.9,0.9-1.3c0.4-0.2,0.2,0.9-0.2,3.2c-0.2,0.8-0.4,1.5-0.4,2.3c0,0.4-0.1,0.7-0.2,1.1c-0.2,0.4-0.4,0.4-0.4,0.2
			c0-0.9,0.1-1.8,0.2-2.8C33.5,16.1,33.6,15.2,33.6,14.2 M31.9,19.5c0.1-1,0.2-2,0.2-3c-0.1-0.5,0.1-0.9,0.4-1.3l0.6-0.6l-0.2,1.1
			c-0.2,3.2-0.4,4.7-0.2,4.7c0.2,0.2,0,0.6-0.4,1.1c-0.2,0.6-0.4,0.9-0.6,0.9C31.7,21.4,31.7,20.5,31.9,19.5 M30.8,22.7
			c0-0.2,0.2-1.5,0.2-2.8c-0.1-0.9,0.1-1.7,0.4-2.6c0.2-0.2,0,2.6-0.2,4.7c0,0.4,0,0.6,0.2,0.9c0.2,0,0,0.2-0.2,0.9S31,24.4,31,24
			c0-0.2,0-0.6-0.2-0.6L30.8,22.7z M30,23.2c0.1-0.7,0.2-1.4,0.4-2.1v1.5c-0.2,1.9-0.2,2.3,0.2,2.3c0.2,0,0.2,0,0.2,0.2
			c-0.2,0.5-0.4,1-0.4,1.5L30,27.9l-0.4-1.3c-0.6-1.3-0.6-2.6,0-3.2v2.3C30,25.7,30,24.9,30,23.2 M29.3,21.5c0,0.5-0.1,0.9-0.4,1.3
			c-0.2,0.9-0.2,0.9-0.2,0.4C28.9,22.1,29.3,21.3,29.3,21.5 M28.9,24c0,0.2-0.1,0.3-0.2,0.4c-0.2,0-0.2,0-0.2-0.2s0-0.2,0.2-0.2
			L28.9,24z M28.5,20c0.4,0,0.4,0.4-0.2,2.3c-0.2,1.1-0.4,1.5-0.6,0.9C27.4,22.3,28,20,28.5,20 M27.4,18.3l0.4,0.4
			c0.2,0.4,0.2,0.6,0,0.9c-0.3,0.7-0.6,1.5-0.6,2.3c-0.2,0.4-0.4,0.4-0.6,0c-0.1-0.3-0.2-0.6-0.2-0.9c0.3-0.5,0.5-1.1,0.6-1.7
			C27.1,19,27.2,18.6,27.4,18.3 M26.8,17.2c0,0.5-0.1,1-0.2,1.5c-0.2,0.6-0.2,1.1-0.2,1.7c0,0.6-0.4,0.6-0.6,0.2l-0.2-0.4
			c0.2,0,0.4-0.2,0.4-0.4C25.9,19.1,26.6,17,26.8,17.2 M24.4,15.3c0-0.2,0.2-0.2,0.4-0.2c0.2,0.2,0.2,0.2,0,0.6v0.6
			c-0.3,0.4-0.5,0.8-0.4,1.3c-0.2,0.9,0,1.1,0.2,1.1s0.2-0.4,0.4-0.9c0-0.4,0.2-1.1,0.2-1.5c0.2-0.6,0.4-0.6,0.6-0.2
			c0.2,0.2,0.2,0.4,0,1.5c-0.3,0.5-0.4,1.1-0.4,1.7c0,0.6-0.2,0.6-1.3-0.4c-0.3-0.3-0.5-0.6-0.6-1.1c0.2,0,0.2-0.2,0.2-0.4
			C23.9,16.7,24.1,16,24.4,15.3 M23.6,14.4c0-0.1,0.1-0.2,0.2-0.2c0,0,0,0,0,0c0.2,0.2,0.2,0.6-0.2,1.9c-0.6,1.5-0.9,2.1-1.1,1.3
			c0.1-0.6,0.2-1.3,0.4-1.9C23.4,15.1,23.4,14.5,23.6,14.4 M22.7,13.6c0.2,0,0.3,0.1,0.4,0.2v0.4c-0.2,0-0.4,0.6-0.6,1.5
			c-0.6,1.3-0.6,1.5-1.1,1.3C21.2,16.8,22.3,13.6,22.7,13.6 M21.2,12.5l0.9,0.4c-0.2,0.6-0.5,1.3-0.6,1.9c-0.6,1.5-0.6,1.7-1.1,1.5
			c-0.2-0.2,0-1.1,0.4-1.9c0.6-1.3,0.6-1.3,0.2-1.3c-0.6,0.7-1.1,1.5-1.3,2.3c0,0.4-0.2,0.4-0.4,0.4c-0.2-0.2-0.2-1.1,0.4-1.9
			C20.6,12.3,20.6,12.3,21.2,12.5 M18.3,11.5l0.6,0.2L18.3,13c-0.9,1.5-0.9,2.3-0.4,2.1l0.4-0.9c0.3-0.9,0.7-1.7,1.3-2.3
			c0.4,0,0.4,0.2,0,1.3c-0.2,0.6-0.5,1.2-0.9,1.7c-0.2,0.9-0.6,0.9-1.7,0.4l-0.9-0.2l0.6-1.3c0.4-0.5,0.6-1,0.9-1.5
			c0.2-0.2,0.4-0.6,0.2-0.6c-0.2-0.2-0.9,0.6-1.5,2.1c-0.4,0.9-0.6,1.5-0.9,1.5c-0.4,0,0.6-2.3,1.5-3.4
			C17.4,11.5,17.6,11.3,18.3,11.5 M16.3,11.9c-0.3,0.7-0.7,1.3-1.1,1.9c-0.2,0.9-0.4,1.1-0.9,1.1H14c0.3-1.1,0.8-2.1,1.5-3
			C16.3,10.8,17.2,10.8,16.3,11.9 M11.4,11.3c0-0.1,0.1-0.2,0.2-0.2c0,0,0,0,0,0h0.6c1.1-0.2,2.1-0.2,3.2,0c0,0-2.1,3.6-2.3,4
			c-0.2,0.2-0.4,0.2-0.4,0c-0.2-0.2,0-0.9,0.6-1.9c0.2-0.5,0.5-1,0.6-1.5c-0.2-0.2-0.6,0.4-1.5,1.9c-0.6,1.3-1.1,1.9-1.7,1.7
			c-0.2,0,1.5-2.6,2.1-3.4c0.4-0.2,0.6-0.6,0.4-0.6c-0.2-0.4-1.1,0.4-2.1,2.3c-0.9,1.7-1.1,1.9-1.9,2.3l-0.9,0.2l0.2-0.6
			c0.8-1.3,1.6-2.6,2.6-3.8C11.4,11.7,11.4,11.5,11.4,11.3 M7.6,16.8c-0.2,0-0.6,0.4-1.3,0.9c-0.9,0.9-1.3,1.1-0.4,0.2
			c0.2-0.2,0.4-0.5,0.4-0.9c0.2-0.7,0.6-1.4,1.1-1.9c1.3-1.5,2.6-2.8,2.3-2.3C9.5,13.4,7.6,16.8,7.6,16.8 M6.3,13.6
			c1.5-1.5,1.3-0.6-0.4,1.3c-0.9,1.1-1.5,1.9-1.5,1.9c0,0.2-0.4,0.4-0.6,0.9l-0.4,0.4C4.2,16.5,5.2,15,6.3,13.6 M1.2,24.2
			c0.1-0.8,0.4-1.6,0.9-2.3c0.2-0.2,0.2-0.4,0.2-0.6c0-0.3,0.1-0.6,0.2-0.9c1.3-2.2,2.9-4.3,4.7-6.2c0.7-0.6,1.2-1.2,1.7-1.9
			c0-0.2,0.4-0.4,0.9-0.6c1.3-0.4,1.5-0.2,0.4,0.2c-1.3,0.6-5.3,5.5-5.3,6.4c-0.4,0.8-0.8,1.6-1.3,2.3c-0.9,1.3-1.5,2.6-1.9,3.2
			C1,24.9,1,24.9,1.2,24.2 M4.4,20c0,0.2-0.1,0.5-0.2,0.6c-0.4,1.1-0.6,0.9-0.2,0C4.1,20.4,4.3,20.2,4.4,20 M3.6,21.9
			c-0.1,0.4-0.2,0.9-0.4,1.3C3,24,2.6,24.7,2.1,25.3l-0.9,1.3c-0.2,0,0.2-1.1,0.9-2.6C2.9,22.5,3.8,21.3,3.6,21.9 M0.8,27.2
			C0.8,27,0.8,27,1,27v0.2l-0.2,0.2V27.2z M0.8,30.6v0.6c-0.2,0.4-0.2,0.4-0.2-0.2C0.6,30.6,0.6,30.4,0.8,30.6 M0.6,32.5
			c0-0.6,0-0.9,0.2-0.4c0.2,0,0.3,0.1,0.4,0.2c0,0.2-0.2,0.4-0.4,0.6C0.6,33.4,0.6,33.4,0.6,32.5 M1.9,29.3
			c-0.2,0.3-0.4,0.7-0.6,1.1C1,30,2.3,27.9,2.3,28.1L1.9,29.3z M1.9,31.3c-0.6,0.9-0.9,0.6-0.2-0.4c0.1-0.4,0.4-0.8,0.6-1.1
			C2.5,29.8,2.1,30.8,1.9,31.3 M0.8,34.7c0.3-1,0.7-1.9,1.3-2.8c-0.1,0.5-0.3,1-0.6,1.5C0.8,34.9,0.8,34.9,0.8,34.7 M1.2,36.1
			L1,36.4v-0.2c0-0.2,0-0.2,0.2-0.2V36.1z M1.4,35.1c0.2-0.7,0.4-1.3,0.9-1.9c0,0.5-0.1,0.9-0.4,1.3C1.4,35.5,1.2,35.7,1.4,35.1
			 M1.9,35.7c0.4-0.6,0.4-0.6,0.6-0.4c0,0.7-0.2,1.3-0.4,1.9c-0.3,0.5-0.5,1-0.6,1.5C1.2,38.7,1.7,36.4,1.9,35.7 M2.3,40.2
			c-0.2,0.4-0.2,0.4-0.4,0c0-0.4,0.2-0.9,0.4-0.6V40.2z M2.7,40.8c0,0.4-0.1,0.7-0.2,1.1c-0.2,0.2,0-1.5,0.2-1.9V40.8z M2.3,27.4
			c-0.2,0-0.4,0.4-0.9,0.9c-0.4,0.9-0.6,1.3-0.6,0.9c0-0.6,1.3-3.2,1.7-3.2c0.1,0.2,0.2,0.4,0.2,0.6C2.7,27,2.5,27.4,2.3,27.4
			 M3.1,43.8v-2.3l0.2-1.9l0.2,0.9c0.1,0.4,0.2,0.8,0.2,1.3c-0.3,0.4-0.4,1-0.4,1.5C3.4,44,3.4,44.2,3.1,43.8 M4,45.3
			c0,0.2,0,0.2-0.2,0c-0.2-0.4,0-0.6,0.2-0.4C4.1,45,4.1,45.2,4,45.3C4,45.3,4,45.3,4,45.3 M4.2,43.6L4,44.7v-1.5
			c0-1.1,0-1.5,0.2-1.1V43.6z M4.9,44.4c-0.1,0.5-0.2,1-0.2,1.5c0,0.6,0,1.1-0.2,0.9v-1.9c0.2-1.5,0.2-1.7,0.4-1.1
			C5.1,44,5.1,44.4,4.9,44.4 M5.7,45.5c-0.1,0.5-0.2,1-0.2,1.5c0.1,0.4,0.1,0.9,0,1.3c-0.2,0-0.4-0.9-0.4-1.5
			c0.2-2.1,0.4-2.3,0.6-1.9L5.7,45.5z M6.1,49.6c-0.2-1.2-0.2-2.4,0-3.6c0.2-0.2,0.4,0.4,0.4,0.9c-0.2,0.5-0.3,1.1-0.2,1.7
			C6.6,50,6.3,50.2,6.1,49.6 M7.2,49.3c0,0.4-0.1,0.9-0.2,1.3c-0.2,0.2-0.2-0.2-0.2-0.9c0-2.8,0-2.8,0.4-2.3c0.2,0,0.2,0.2,0.2,0.4
			C7.2,47.9,7.2,48.7,7.2,49.3 M7.6,51.7c-0.2-0.8-0.2-1.7,0-2.6C7.8,47.6,8,48.1,8,49.8C7.8,51.7,7.8,51.9,7.6,51.7 M10,54.4
			l-0.9-0.9C8.4,53,8.1,52,8.2,51c0-0.5,0.1-1,0.2-1.5c0.2-0.4,0.4,0.2,0.4,1.7c-0.2,1.5,0,1.9,0.2,1.9c0.4,0,0.6-0.4,0.4-0.6
			c-0.2,0-0.2-0.6-0.2-1.1c0-0.9,0-1.1,0.2-0.6c0.3,0.6,0.5,1.2,0.4,1.9L10,54.4z M10.8,54c0,2.1-0.2,1.7-0.2-0.2
			c0-1.3,0-1.7,0.2-1.5V54z M12.1,57c-0.2,0-0.4-0.6-0.4-0.9s-0.2-1.1-0.2-1.7c-0.2-1.3-0.2-1.3,0.2-0.9c0.2,0.2,0.4,0.6,0.4,1.7V57
			z M14.2,58.5c-0.2,0-0.4-0.2-0.9-0.4c-0.6-0.4-0.6-0.6-0.6-1.9c-0.2-1.1,0-1.5,0-1.3c0.2,0,0.4,0.4,0.4,0.9v1.5
			c0.2,0.4,0.2,0.6,0.4,0.2c0-0.2,0.2-0.6,0-1.1c0-0.6,0.2-0.6,0.4-0.2c0.2,0,0.2,0.6,0.2,1.3L14.2,58.5z M14.8,59.6
			c-0.2-0.2-0.2-0.6-0.2-1.5c0.2-1.1,0.2-1.3,0.4-0.9c0.2,0.2,0.2,0.6,0.2,1.5C15.3,59.8,15.3,60,14.8,59.6 M16.3,60.6
			c-0.4-0.4-0.6-2.8-0.2-2.6c0.2,0,0.2,0.6,0.4,1.3C16.8,60.8,16.6,61,16.3,60.6 M18,62.1c-0.4,0-0.9-0.9-0.9-1.9
			c-0.2-1.1,0-1.1,0.2-1.1s0.4,0.4,0.4,0.9S18,61,18,61.5L18,62.1z M19.1,61.7c0,1.7-0.4,1.1-0.4-0.6c0-1.1,0-1.3,0.2-0.9
			C19.1,60.4,19.3,60.8,19.1,61.7 M21.4,64.2h-0.2c-0.3-0.4-0.4-1-0.4-1.5c0-0.9-0.2-1.1-0.4-1.1s-0.2,0-0.2,0.9
			c0.2,0.9,0,1.1-0.2,0.9c-0.2,0-0.4-1.3-0.2-1.9l0.2-0.6l0.9,0.6c0.6,0.6,0.6,0.6,0.6,1.7L21.4,64.2z M23.1,64.2
			c0,0.9,0,0.9-0.4,0.6c-0.6-0.2-0.6-0.4-0.6-1.3c-0.2-1.3,0-1.3,0.6-0.9C23.2,63.1,23.4,63.7,23.1,64.2 M24.2,65.7
			c-0.4,0-0.4-0.4-0.4-1.5c0.2-0.9,0.2-0.9,0.4-0.6c0.2,0,0.4,0.6,0.4,1.1C24.6,65.3,24.4,65.7,24.2,65.7 M25.5,65.7
			c-0.2-0.5-0.3-1.1-0.4-1.7c0.4,0,0.6,0.2,0.8,1.1C25.9,65.9,25.7,66.4,25.5,65.7 M27,66.6c-0.4-0.5-0.6-1.1-0.6-1.7
			c0-0.6,0.6-0.2,0.9,0.6C27.6,66.6,27.6,66.6,27,66.6 M28.7,67c-0.2,0-0.6-0.9-0.9-1.5c-0.2-0.6-0.2-0.9,0.4-0.6
			c0.2,0,0.4,0.2,0.4,1.1V67z M28.5,64.2h-0.9c0-0.2-0.2-0.2-0.4-0.2c-0.6,0-0.9-0.2-0.9-0.4s-0.2-0.2-0.6-0.2
			c-0.4,0.2-1.7-0.6-1.7-1.1h-0.4c-0.4,0.2-0.6,0-4-2.3c-2.6-1.8-5.1-4-7.2-6.4c-0.9-1.3-1.7-2.3-1.7-2.3c-0.2-0.2-0.4-0.6-0.6-0.9
			c-0.3-0.4-0.6-0.8-0.9-1.3c-0.4-0.7-0.8-1.3-1.3-1.9l-0.4-0.9c-0.3-0.4-0.5-0.7-0.9-1.1c-1.2-1.6-2.1-3.5-2.5-5.5
			c-0.9-2.6-0.9-4-0.6-4.5c0.2-0.4,0.2-0.9-0.2-0.6c-0.4,0.4-0.4-5.5,0.2-8.7c0.4-2.8,1.5-5.4,3.2-7.7c1.1-0.9,2.4-1.6,3.8-2.1
			c2.6-0.5,5.3-0.4,7.9,0.2c3.4,1.1,5.1,2.3,7.4,5.5c2.8,3.6,3.6,6,3.6,9.4c0,1.1,0.4,1.7,0.6,1.3c0.2,0,0.2-0.9,0.2-1.7
			c0.2-2.7,1-5.4,2.1-7.9c1-1.6,2-3.2,3.2-4.7c1.3-1.2,2.7-2.2,4.3-3c1-0.3,2-0.5,3-0.4c2.1-0.2,2.1-0.2,3.8,0.6
			c2.1,1.1,2.8,1.5,3.8,3c0.8,0.6,1.3,1.4,1.5,2.3c0.2,0.6,0.4,1.7,0.6,2.3c0.3,0.7,0.4,1.5,0.4,2.3c0.2,1.3,0.2,1.3-0.4,2.1
			c-0.6,1.1-0.6,1.7,0,1.5c0.2-0.2,0.4,0,0.2,0.2c-0.1,0.6-0.2,1.1-0.4,1.7c-0.1,1.1-0.7,2.2-1.5,3c-0.6,0.6-0.6,0.6-0.4,0.9
			c0.2,0.2,0.2,0.4-0.4,1.5c-0.5,1.4-1.3,2.7-2.3,3.8c-0.4,0.6-1.7,2.1-2.8,3.6c-1.1,1.3-3.8,4.3-6,6.4c-1.8,1.9-3.5,3.9-5.1,6
			c-0.7,0.7-1.2,1.5-1.7,2.3c-0.9,1.2-1.5,2.6-1.7,4c-0.2,1.3-0.2,1.5-0.6,1.5C29.5,64,28.9,64.2,28.5,64.2 M33.6,58.3
			c-1.3,2.3-2.3,5.3-2.3,6.4c0,0.4,0,0.6-0.2,0.6v-1.7c0-1.9,0.7-3.8,1.9-5.3c0.4-0.9,1.1-1.5,1.1-1.7C34.2,56.6,34,57.2,33.6,58.3
			 M47.2,48.1c-1.3,0.9-1.1,0.6,0.4-0.9c1.5-1.3,3.4-2.8,3.4-2.6C49.9,45.9,48.6,47.1,47.2,48.1 M55.9,37.8
			c-0.2,0.7-0.6,1.3-1.1,1.9c-1.1,1.7-2.1,2.6-5.7,5.3c-1.8,1.3-3.3,2.9-4.7,4.7c-0.2,0.2-1.9,1.9-3.4,3.6c-1.5,1.5-2.9,3-4.3,4.7
			c-0.6,1-1.2,1.9-1.9,2.8c-0.1,0.2-0.3,0.4-0.4,0.6c-0.2-0.4,0.9-2.3,1.7-3.4c1.5-2.3,9.8-11.7,12.1-13.8
			C50.8,41.7,56.1,37.4,55.9,37.8 M57,35.7l-1.7,1.7c-0.6,0.4-2.1,1.7-3.2,2.6c-2.8,2.1-8.7,8.1-9.4,9.4c-0.4,0.4-0.8,0.8-1.1,1.3
			c-2.2,2.3-4.2,4.7-6,7.2c-0.9,1.1-1.6,2.3-2.1,3.6c-0.4,1.1-0.4,1.3-0.2,1.5s0.2,0.4,0,0.9l-0.2,0.4v-0.4
			c-0.2-1.1-0.6-0.4-0.6,0.9c0,0.6-0.2,1.7-0.2,2.3c-0.2,0.9-0.2,0.9-0.6,0.9c-0.9,0-1.7-0.6-1.7-1.1c0-0.6-0.4-0.6-0.6-0.2v-0.9
			c0-0.9,0-1.1,0.4-1.1c0.2-0.2,0.2,0,0.2,0c0,0.2,0,0.2,0.2,0.4c0.2,0.3,0.3,0.7,0.4,1.1c0.2,1.3,0.9,1.7,0.6,0.4
			c0-0.6,0-0.6,0.2-0.6s0.4-0.9,0.4-1.7c0.2-0.6,1.5-4.5,2.3-6.4c1.9-3.6,3.2-5.1,9.8-11.7c3.6-3.6,7.9-8.1,9.6-10
			c2.8-3,4.5-4.3,4.7-4C58.5,32.3,57.6,34.9,57,35.7 M59.3,26.6c0,1.3-0.2,2.6-0.2,3.2c0,0.8-0.5,1.5-1.3,1.7
			c-2.4,1.8-4.6,3.9-6.6,6.2c-1.7,1.9-3,3.4-3.2,3.6s-0.6,0.4-1.1,0.9l-0.6,0.6l0.6-0.9c0.5-0.6,1-1.2,1.5-1.9
			c0.4-0.6,1.3-1.7,1.7-2.3s1.9-2.3,3.2-3.8c1.4-1.5,3.1-2.8,4.9-3.8c0.4-0.2,0.4-0.4,0.2-0.4c-0.4-0.4-3.4,1.9-5.5,4.3l-1.5,1.5
			c0.2-0.5,0.4-1,0.6-1.5c0.7-1.3,1.7-2.4,2.8-3.4c0.7-0.8,1.5-1.5,2.3-2.1c0.4-0.2,1.7-1.3,1.7-1.7s-0.9,0.2-3,2.1
			c-3.2,3-3.2,2.8-0.2-0.6c0.9-1.2,1.9-2.3,3.2-3.2l0.6-0.4L59.3,26.6z M59.1,24c-1.5,1.1-2.9,2.5-4,4L54,29.1
			c-0.6,0.9-0.9,0.9-0.6,0.4c0.1-0.5,0.2-1,0.2-1.5c0.2-0.9,0.4-1.3,2.1-3.2c0.6-0.9,1.3-1.8,2.1-2.6c0.6,0,0.6-0.6,0.2-0.6
			c-1.3,0.9-2.4,2.1-3.2,3.4c-0.4,0.4-0.9,1.1-1.1,1.1s-0.2-1.9,0-2.1c0.2-0.4,1.9-2.6,2.8-4c0.9-1.3,1.3-1.5,1.5-1.1
			c0.1,0.3,0.2,0.6,0.4,0.9c0,0.4,1.1,3.8,1.1,4C59.4,23.9,59.3,24,59.1,24"/>
		<path id="Path_15" class="st1" d="M56.8,69.3c1.4,0.7,2.8,1.5,4.1,2.4c0.8,0,1.6-0.2,2.4-0.6c2.4-0.6,3-1.2,1.2-1.2
			s-1.8-0.6,0.6-5.3c2.3-4.7,5.3-9.1,8.9-13c3-4.7,5.9-10.1,5.9-11.8c0-1.2-1.2-3-1.8-4.7c-1.8-3.6-4.1-4.1-8.3-2.4
			c-2.4,1.2-5.9,5.3-5.9,7.1s-1.2,0-3-4.1c-2.4-5.3-4.7-8.9-9.5-11.8c-2.4-2.4-3-2.4-4.7-1.8c-3.6,1.2-8.3,5.3-9.5,8.9
			c-3.6,9.5,0.6,21.3,10.1,31.4C50.3,64.6,54.4,68.1,56.8,69.3 M74.6,33.8c1.2,0.6,3.6,4.7,3,7.1c-0.6,3-2.4,5.3-8.9,15.4
			c-1.2,1.2-2.4,3.6-3.6,5.3c-0.5,1.2-1.1,2.4-1.8,3.6c-0.6,0,0-2.4,0.6-4.1c0.9-1.9,1.7-3.9,2.4-5.9c1.2-1.8,2.4-5.9,4.1-8.3
			c1.8-4.7,2.4-5.3,1.2-7.1c0-1.8-1.2-2.4-2.4-3c-0.6,0-1.1-0.5-1.2-1.2C68,35,72.2,33.8,74.6,33.8 M60.9,40.9
			c0.6,1.2,1.8,1.8,2.4,0.6h0.6c0.6,0,1.2-0.6,1.8-1.8c0.8-1.3,2.5-1.7,3.8-0.9c0.4,0.2,0.7,0.5,0.9,0.9c0.6,0.6,0,4.7-0.6,5.9
			c-0.6,0-3,4.7-3.6,5.9c0,0.6-1.8,6.5-3.6,8.9c-0.4,0.7-0.6,1.5-0.6,2.4V64c-0.6,0-0.6,1.2-0.6,3c0,0.8-0.2,1.6-0.6,2.4
			c-1.2-0.3-2.2-0.9-3-1.8c-3-2.4-10.1-11.3-10.1-11.8s-0.6-0.6-0.6-1.2c-1.2,0-4.1-6.5-4.7-9.5C41.4,40.9,42,35,43.2,33.8
			c0.5-0.5,0.9-1.1,1.2-1.8c0-1.2,4.1-4.7,4.7-4.1C53.2,27.9,59.7,35,60.9,40.9 M43.8,55.1c-0.6-0.6-1.8-3-3.6-5.9
			c-1.8-4.7-2.4-5.3-2.4-10.7c0-7.1,2.4-11.3,7.7-14.2c1.3-0.6,2.8-0.6,4.1,0c0.6,0,1.8,1.2,2.4,1.8c1.2,1.2,1.2,1.2,0,0.6
			c-2.4-1.2-4.1-1.2-6.5,1.2c-3.6,3-5.3,5.9-5.3,11.8c0,2.4,0,4.7,0.6,5.9c1.2,4.7,5.3,11.8,8.9,15.4c1.2,1.2,1.8,2.4,1.2,2.4
			s-5.9-6.5-5.9-6.5C44.9,56.3,44.3,55.7,43.8,55.1"/>
	</g>
</g>
</svg>
