<?xml version="1.0" encoding="utf-8"?>
<!-- Generator: Adobe Illustrator 25.2.1, SVG Export Plug-In . SVG Version: 6.00 Build 0)  -->
<svg version="1.1" id="Globe_Icon" xmlns="http://www.w3.org/2000/svg" xmlns:xlink="http://www.w3.org/1999/xlink" x="0px" y="0px"
	 viewBox="0 0 78.4 78.4" style="enable-background:new 0 0 78.4 78.4;" xml:space="preserve">
<style type="text/css">
	.st0{clip-path:url(#SVGID_2_);}
	.st1{fill:#C30000;}
</style>
<g>
	<defs>
		<rect id="SVGID_1_" y="1.6" width="78.4" height="75.2"/>
	</defs>
	<clipPath id="SVGID_2_">
		<use xlink:href="#SVGID_1_"  style="overflow:visible;"/>
	</clipPath>
	<g id="Group_13" transform="translate(0 0)" class="st0">
		<path id="Path_16" class="st1" d="M17.9,72.1c1.7,0.8,3.5,1.4,5.4,1.9c0,0,0,0,0,0c14.1,5.4,31.3,2.5,43.1-6.9
			c5.8-4.5,9.8-11,11.3-18.2c1.3-7.3,0.4-14.8-2.5-21.6c-5.9-14.2-19-25.4-34.8-25.7C23.8,1.3,9.5,13.6,3.3,28.3
			c-3.6,8.6-4.6,18.5-1.2,27.3C5,63,10.7,68.9,17.9,72.1 M2.4,34.3C6.5,19.2,19.7,5.2,35.7,3.3c5.8-0.7,11.6,0.2,16.9,2.5
			c0.1,1.3,0.4,2.6,0.8,3.8c0.5,1.9-2.1,2.9-3.3,3.8c-2.4,1.8-2.6,4-2.2,6.7c0.1,0.2,0.2,0.3,0.4,0.3c0.6-0.1,0.9,1.2,1.1,1.6
			c0.2,0.4,0.5,0.7,1,0.9c0.4,0.1,0.8,0.1,1.2,0.1c0.7,0,1.4,0.4,1.7,1.1c0.5,0.8,0,1.8,0.6,2.6c0.4,0.6,1.1,0.8,1.7,1.1
			c0.8,0.5,1.4,1.2,1.8,2c0.6,1.5,0.5,3.2-0.4,4.6c-1.5-1.3-4-0.8-5.5,0.2c-0.1,0.1-0.2,0.2-0.1,0.3s0.2,0.2,0.3,0.1
			c0.8-0.4,1.8-0.6,2.7-0.5c0.8,0.2,1.6,0.4,2.4,0.7c0.2,0.1,0.4-0.1,0.5-0.3c0,0,0,0,0,0c1.1-1.1,1.6-2.7,1.3-4.2
			c-0.1-0.9-0.5-1.8-1-2.5c-0.6-0.7-1.3-1.2-2.1-1.6c-1.1-0.8-0.7-2.1-1.4-3.2c-0.5-0.7-1.2-1.2-2.1-1.3c-0.7-0.1-1.3,0.1-1.8-0.6
			c-0.2-0.3-0.3-0.7-0.5-1.1c-0.2-0.4-0.5-0.7-1-0.8c-0.3-1.8-0.3-3.5,1.2-4.9c1-1,2.3-1.5,3.4-2.4c0.8-0.5,1.3-1.4,1.2-2.4
			c-0.1-0.7-0.5-1.4-0.6-2.1c-0.1-0.5-0.2-1-0.2-1.6C66,12.4,74.5,24.4,76.1,38.1c-0.6-0.2-1.2,0-1.6,0.5c-1.4,0.3-2.9,0.6-4.3,1
			c-0.5-1.1-1.5-1.9-2.8-2c-1.9-0.2-3.5,1.1-4.9,2.3c-1.4,1.1-2.2,2.8-2.1,4.6c0,2.7-0.4,5.5-0.9,8.1c-0.3,1.2-0.6,2.5-0.9,3.7
			c-0.2,0.6-0.3,1.2-0.5,1.7c-0.2,0.8-0.2,1-1,1.1c-1,0.2-2,0.2-3,0c-1.5-0.4-2-1.4-2.1-2.9c-0.1-3,0.9-8.3-2.2-10.3
			c-1.6-1.1-3.6-0.5-5.4-0.2c-1.4,0.3-2.9-0.2-3.9-1.3c-0.5-0.4-1-0.7-1.7-0.9c0.4-2.6-0.3-5.8,1.6-7.8c1.1-1.1,2.9-1.1,4.4-1.2
			c1.7-0.1,3.3,0.1,5,0c0.1,0,0.3-0.1,0.3-0.3c0-0.1-0.1-0.2-0.2-0.2c-1.9-0.5-3.9-0.6-5.8-0.3c-1.4-0.1-2.8,0.3-3.9,1.1
			c-2.6,2.2-1.5,6.1-2.2,9.1c-0.1,0.2,0.1,0.5,0.3,0.6c0,0,0.1,0,0.1,0c1.4,0,2.3,1.6,3.6,2.1c1.1,0.3,2.3,0.3,3.4,0
			c1.5-0.3,3.3-0.7,4.5,0.6c1,1.1,1.1,2.7,1.2,4.1c0.1,1.7,0,3.4,0.1,5.1c-0.1,1.1,0.3,2.2,1.1,3c1.6,1.5,4.3,1.1,6.3,0.7
			c0.2,0,0.3-0.2,0.3-0.3c1.4-4.3,2.3-8.8,2.7-13.4c0-1.1,0-2.2,0.2-3.3c0.4-1.1,1.1-2,2.1-2.6c1.4-1.2,5.2-3.1,5.8,0
			c0.1,0.3,0.4,0.4,0.6,0.4c1.5-0.3,2.9-0.7,4.3-1c0,0.1,0.1,0.1,0.1,0.2c0.4,0.5,1.1,0.7,1.6,0.3c0.1-0.1,0.2-0.1,0.3-0.2
			c0.5,8.2-1.8,16.4-8,22.8c-10.2,10.5-25.6,13.1-39.6,12c-1.8-0.2-3.6-0.4-5.4-0.8c0,0,0,0,0,0c-7.4-2.5-14-7.2-18-13.9
			C0.7,52.3,0.2,42.8,2.4,34.3"/>
		<path id="Path_16_-_Outline" class="st1" d="M38.3,77.3c-5.2,0-10.3-0.9-15.1-2.7c0,0-0.1,0-0.1,0c-1.9-0.5-3.7-1.2-5.5-2
			c-3.6-1.6-6.9-4-9.6-6.8c-2.8-2.9-4.9-6.2-6.4-9.9c-1.7-4.4-2.4-9.2-2.1-14c0.3-4.7,1.4-9.4,3.3-13.7c1.6-3.7,3.6-7.2,6.1-10.4
			c2.5-3.2,5.3-6.1,8.5-8.6c6.4-5.1,14.2-7.9,22.4-8c0.2,0,0.4,0,0.6,0C48.2,1.3,55.8,4,61.9,8.8c3,2.4,5.8,5.1,8.1,8.2
			c2.3,3.1,4.3,6.5,5.7,10.1c1.4,3.4,2.4,7.1,2.9,10.8c0.5,3.7,0.4,7.5-0.3,11.1c-1.5,7.3-5.6,13.9-11.5,18.5
			c-4,3.2-8.5,5.6-13.3,7.2C48.6,76.4,43.5,77.3,38.3,77.3z M28.5,75.1c3.2,0.8,6.5,1.1,9.8,1.1c5,0,10-0.8,14.7-2.4
			c4.7-1.6,9.1-4,13-7.1c5.7-4.5,9.7-10.8,11.1-17.9c0.7-3.6,0.8-7.2,0.3-10.8c-0.5-3.6-1.4-7.1-2.8-10.5c-1.4-3.5-3.3-6.8-5.6-9.9
			c-2.3-3-4.9-5.7-7.9-8C55.3,4.9,48,2.3,40.4,2.1c-0.2,0-0.4,0-0.6,0C31.9,2.2,24.2,4.9,18,9.9c-3.1,2.4-5.9,5.3-8.3,8.4
			c-2.4,3.1-4.4,6.6-5.9,10.2c-1.8,4.3-2.9,8.8-3.2,13.4c-0.3,4.6,0.4,9.2,2,13.5l0.1,0.2c-1-2.6-1.6-5.3-1.9-8.1
			c-0.4-4.5,0-9,1.2-13.3c2.2-7.9,6.4-15,12.3-20.7c2.9-2.9,6.2-5.3,9.8-7.1c3.6-1.9,7.5-3.1,11.5-3.6c1.3-0.2,2.6-0.2,3.9-0.2
			c4.6,0,9.1,1,13.3,2.8l0.3,0.1v0l0.8,0.4C66.4,12,74.9,24.2,76.6,38.1l0.1,0.7l0,0l0.1,1.1c0.3,4.2-0.2,8.3-1.5,12.3
			c-1.3,4.1-3.6,7.8-6.6,10.9c-4.4,4.4-9.7,7.7-15.7,9.6c-5.9,1.9-12.1,2.8-18.3,2.8c-2,0-4-0.1-6-0.2L28.5,75.1z M23.5,73.4
			c1.7,0.4,3.5,0.6,5.2,0.8c2,0.2,4,0.2,5.9,0.2c6.1,0.1,12.2-0.8,18-2.7c5.8-1.8,11-5.1,15.3-9.4c2.9-3,5-6.6,6.3-10.5
			c1.2-3.6,1.7-7.3,1.5-11.1c-0.2,0.1-0.4,0.1-0.5,0.1c-0.5,0-1-0.2-1.2-0.6c-1.4,0.3-2.8,0.6-4,0.9c-0.1,0-0.2,0-0.2,0
			c-0.5,0-0.9-0.3-1-0.8c-0.2-0.9-0.6-1.3-1.4-1.3c-1.3,0.2-2.6,0.7-3.6,1.6l0,0C63,41.2,62.3,42,62,43c-0.1,0.7-0.2,1.4-0.1,2
			c0,0.4,0,0.7,0,1.1c-0.4,4.6-1.3,9.1-2.7,13.5c-0.1,0.3-0.4,0.6-0.7,0.7c-1,0.2-2,0.4-3.1,0.4c-1.3,0.1-2.6-0.4-3.6-1.2
			c-0.9-0.9-1.3-2.1-1.3-3.3c0-0.8,0-1.7,0-2.5c0-0.8,0-1.7,0-2.6c0.1-1.4-0.3-2.7-1.1-3.8c-0.5-0.5-1.1-0.8-1.8-0.7
			c-0.6,0-1.3,0.1-1.9,0.3l-0.3,0.1c-0.7,0.1-1.4,0.2-2.1,0.3c-0.5,0-1.1-0.1-1.6-0.3c-0.6-0.3-1.1-0.6-1.6-1.1
			c-0.5-0.5-1.1-0.9-1.8-1h0c-0.3,0-0.6-0.1-0.7-0.3c-0.2-0.2-0.3-0.5-0.2-0.8c0.2-1,0.3-2,0.3-2.9c0.1-2.3,0.1-4.7,2.1-6.4
			c1.2-0.8,2.6-1.3,4.1-1.2l0.1,0c0.8-0.1,1.6-0.1,2.4-0.1c1.2,0,2.4,0.1,3.6,0.5c0.4,0.1,0.6,0.4,0.5,0.8c0,0.4-0.3,0.7-0.7,0.7
			c-0.3,0-0.7,0-1.1,0c-0.5,0-1,0-1.5,0s-1,0-1.4,0c-0.4,0-0.7,0-1,0l-0.4,0c-1.3,0.1-2.8,0.1-3.6,1c-1.2,1.3-1.2,3.2-1.3,5.1
			c0,0.7,0,1.4-0.1,2.1c0.5,0.2,1,0.5,1.4,0.9c0.7,0.7,1.7,1.2,2.7,1.2c0.3,0,0.5,0,0.8-0.1c0.3,0,0.6-0.1,0.9-0.2
			c0.8-0.2,1.6-0.3,2.4-0.3c0.9,0,1.8,0.2,2.5,0.7c2.6,1.8,2.5,5.6,2.4,8.6c0,0.8,0,1.5,0,2.1c0.1,1.4,0.5,2.1,1.7,2.4
			c0.4,0.1,0.9,0.2,1.3,0.2c0.5,0,1,0,1.5-0.1c0.4-0.1,0.4-0.1,0.4-0.1c0.1-0.1,0.1-0.3,0.2-0.5l0-0.2c0.2-0.6,0.3-1.1,0.5-1.7
			c0.4-1.4,0.7-2.6,0.9-3.7c0.6-2.6,0.9-5.3,0.9-8c-0.1-1.9,0.8-3.8,2.3-5c1.3-1.2,2.9-2.4,4.8-2.4c0.1,0,0.3,0,0.4,0
			c1.3,0.1,2.4,0.8,3,1.9c1.4-0.3,2.6-0.6,3.8-0.9c0.4-0.3,0.8-0.5,1.3-0.6c-1.8-13-9.7-24.3-21.3-30.4c0,0.2,0.1,0.4,0.1,0.6
			c0.1,0.3,0.2,0.6,0.3,0.8C54.8,9,54.9,9.4,55,9.8c0.1,1.1-0.4,2.3-1.4,2.9c-0.5,0.4-1,0.7-1.6,1.1c-0.7,0.4-1.3,0.8-1.8,1.3
			c-0.8,0.8-1.3,1.8-1.1,4.1c0.4,0.2,0.7,0.6,0.9,1c0.1,0.2,0.2,0.4,0.2,0.5c0.1,0.2,0.1,0.3,0.2,0.5c0.2,0.3,0.4,0.4,1,0.4
			c0.2,0,0.3,0,0.5,0c1,0.1,1.9,0.7,2.4,1.6c0.3,0.5,0.5,1,0.5,1.6c0.1,0.7,0.2,1.1,0.7,1.5c0.2,0.1,0.3,0.2,0.5,0.3
			c0.7,0.3,1.2,0.8,1.7,1.4c0.6,0.8,1,1.8,1.1,2.7c0.3,1.7-0.2,3.4-1.4,4.6c-0.1,0.3-0.4,0.5-0.8,0.5c-0.1,0-0.2,0-0.2,0
			c-0.3-0.1-0.6-0.2-0.9-0.3c-0.5-0.2-0.9-0.3-1.4-0.4c-0.2,0-0.4,0-0.6,0c-0.7,0-1.3,0.1-1.9,0.4c-0.1,0.1-0.2,0.1-0.3,0.1
			c-0.3,0-0.6-0.2-0.7-0.6c-0.1-0.3,0-0.7,0.3-0.8c1-0.7,2.3-1,3.5-1c0.7,0,1.5,0.2,2.1,0.5c0.6-1.2,0.6-2.5,0.1-3.7
			c-0.3-0.8-0.8-1.4-1.5-1.8c-0.1-0.1-0.3-0.2-0.5-0.2c-0.5-0.2-1-0.6-1.4-1c-0.3-0.5-0.4-1-0.4-1.6c0-0.3,0-0.7-0.2-1
			c-0.3-0.5-0.8-0.8-1.3-0.8c-0.1,0-0.3,0-0.4,0c-0.1,0-0.2,0-0.3,0c-0.2,0-0.5,0-0.7-0.1c-0.5-0.2-0.9-0.6-1.2-1.1
			c-0.1-0.2-0.2-0.4-0.2-0.6c-0.1-0.3-0.2-0.6-0.4-0.8c-0.5,0-0.9-0.3-1-0.8C47,17.7,47,15,49.8,13c0.3-0.2,0.6-0.4,1-0.6
			c1.5-0.9,2.5-1.6,2.2-2.7c-0.1-0.3-0.2-0.6-0.2-0.9c-0.3-0.9-0.5-1.8-0.6-2.7c-4-1.7-8.3-2.6-12.6-2.6c-1.3,0-2.6,0.1-3.8,0.2
			C31.8,4.2,28,5.4,24.5,7.3c-3.5,1.8-6.8,4.2-9.6,7c-5.7,5.6-9.9,12.6-12,20.3c-1.1,4.2-1.5,8.6-1.1,12.9
			c0.7,8.2,4.9,15.8,11.6,20.7C16.4,70.4,19.9,72.2,23.5,73.4C23.5,73.4,23.5,73.4,23.5,73.4L23.5,73.4z M50.8,47.8
			c0.4,1.1,0.6,2.2,0.6,3.3c0,0.9,0,1.8,0,2.6c0,0.8,0,1.6,0,2.5c-0.1,1,0.2,1.9,0.9,2.6c0.6,0.5,1.3,0.8,2.1,0.9
			c-0.2,0-0.4-0.1-0.6-0.1c-1.5-0.4-2.6-1.8-2.4-3.4c0-0.7,0-1.4,0-2.2C51.5,51.9,51.6,49.5,50.8,47.8z M58.2,59
			c-0.1,0.2-0.3,0.4-0.5,0.5c0.1,0,0.3-0.1,0.4-0.1L58.2,59z M69.8,40.1C69.8,40.1,69.8,40.1,69.8,40.1l2.9-0.7L70.3,40L69.8,40.1
			l-0.1-0.4C69.7,39.9,69.8,40,69.8,40.1z M67,38c-1.5,0.2-2.9,0.8-3.9,1.9l0.1-0.1l0,0c1.2-1,2.6-1.6,4.2-1.8l-0.1,0
			C67.2,38,67.1,38,67,38L67,38z M74.6,39.1l0.2,0.4c0,0,0,0.1,0.1,0.1c0.1,0.2,0.3,0.3,0.5,0.3c0.2,0,0.5-0.1,0.6-0.3l0.7-0.7
			l-0.7-0.2c-0.1,0-0.2,0-0.3,0c-0.3,0-0.6,0.1-0.8,0.4L74.8,39L74.6,39.1z M55,34.2c0.4,0.1,0.8,0.2,1.2,0.4l0.3,0.1
			C56,34.4,55.5,34.2,55,34.2z M54.1,25.2c0,0,0,0.1,0,0.1c0,0.4,0,0.7,0.2,1.1c0.2,0.2,0.4,0.4,0.6,0.5
			C54.4,26.4,54.2,25.8,54.1,25.2L54.1,25.2z M50.1,22.2c0.1,0.2,0.3,0.3,0.5,0.4c0.1,0,0.2,0.1,0.3,0c0.1,0,0.1,0,0.2,0
			C50.7,22.5,50.3,22.4,50.1,22.2L50.1,22.2z M53.9,9.6c0.1,0.7-0.1,1.4-0.5,1.9c0.5-0.4,0.7-1,0.6-1.6C54,9.9,54,9.7,53.9,9.6z"/>
		<path id="Path_17" class="st1" d="M5.4,28.3l4.2,2.5c0.2,0.1,0.5,0,0.6-0.2c0-0.1,0.1-0.1,0.1-0.2c0.2-1.4,4.2,1,4.6,1.3
			c0.8,0.7,1.1,2.1,1.3,3.3c-1.8-0.2-3.6,0-5.2,0.7c-1.3,0.6-2.9,1.9-2.6,3.6c0.1,0.3,0.2,0.6,0.3,0.8C9,41,8.8,41.2,8.4,42
			c-0.4,0.5-0.5,1.1-0.4,1.7c0.3,1.3,1.7,1.3,2.7,1.6c2.2,0.7,0.4,2.6,0.3,4.1c-0.1,0.4,0.1,0.8,0.3,1.2c0.2,0.2,0.4,0.4,0.6,0.5
			c0.9,0.6,1.1,0.8,1,1.8c-0.1,1.5-1.5,9.3,2.1,8.5c0.7-0.2,1.2-0.7,1.6-1.3c0.8-1.1,1.5-2.3,2.1-3.5c1.3-2.3,2.3-4.8,3.2-7.3
			c1.8-1.9,0.1-5.3,0-7.5c0-1.1,0.3-2.2,0.9-3.1c0.4-0.6,0.6-1.3,0.6-2.1c-0.1-0.9-0.7-1.6-1.5-1.8c0-0.5,0-1,0-1.5
			c0.1-0.5,0.2-1.1,0.2-1.6c-0.2-0.5-0.7-0.8-1.2-1c0.1-1.4,0.7-2.8,1.6-3.9c1-1.1,2.2-1.8,3.6-2.3c2-0.9,1.2-3,0-4.3
			c1.8-2.1,4.1-3.7,6.6-4.8c0.4-0.2,0.3-0.7,0-0.8c-1.2-0.8-2.5-1.5-3.8-2.1c0.6-2.2,2.6-3.8,4.9-3.9c0.3,0,0.6-0.3,0.6-0.6
			c0-0.1-0.1-0.3-0.2-0.4c-1-1.3-2.4-2-4-2.1c-0.5,0-0.7,0.9-0.1,1c1,0.1,1.9,0.5,2.6,1.2c-2.5,0.6-4.4,2.5-4.9,5
			c-0.1,0.3,0.1,0.5,0.4,0.6c1.1,0.5,2.2,1,3.3,1.6c-2.4,1.2-4.6,2.9-6.3,5c-0.2,0.2-0.2,0.5,0,0.7c0.7,0.5,1.1,1.4,1.1,2.3
			c-0.1,0.9-0.8,0.9-1.5,1.2c-0.9,0.4-1.8,1-2.5,1.7c-1.4,1.4-2.2,3.3-2.3,5.3c0,0.2,0.1,0.4,0.3,0.4c0.9,0.3,0.8,0.8,0.7,1.6
			c-0.1,0.7-0.1,1.5,0,2.3c0,0.2,0.2,0.5,0.5,0.5c0.6-0.1,1.1,0.7,1.1,1.2c-0.1,0.5-0.2,0.9-0.4,1.3c-0.2,0.4-0.5,0.8-0.7,1.2
			c-0.4,1-0.5,2.1-0.3,3.2c0.4,2.2,1.9,5.3-0.3,7.1c-0.2,0.1,0,0.4,0.2,0.3c0.1,0,0.2-0.1,0.2-0.1c-0.9,2.1-1.9,4.1-2.9,6.1
			c-0.6,1.2-1.3,2.3-2,3.4c-0.3,0.5-0.8,1.3-1.5,1.2c-0.9-0.1-1.2-1.2-1.2-1.9c-0.2-2.2,0.5-4.5,0.3-6.8c0-0.5-0.2-0.9-0.6-1.2
			c-0.5-0.4-1.3-0.3-1.4-1.1c0-0.4,0.1-0.7,0.3-1c0.4-1.1,1.1-2.3,0.3-3.3c-0.7-0.9-3.3-0.8-3.5-2c-0.1-0.7,0.8-1.4,1-2.2
			c0.2-0.9-0.5-1.4-0.5-2.3c0-1.4,1.9-2.3,3-2.6c1.4-0.4,3-0.5,4.5-0.2c0.3,0.1,0.5-0.1,0.6-0.3c0-0.1,0-0.2,0-0.3
			c-0.2-1.2-0.5-2.5-1-3.6c-0.5-1-1.9-1.5-2.8-2c-1.1-0.6-3.3-1.6-3.9-0.2l-3.7-2.2c-0.2-0.1-0.5,0-0.6,0.2
			C5.1,27.9,5.2,28.2,5.4,28.3"/>
		<path id="Path_17_-_Outline" class="st1" d="M14.4,61.9c-0.6,0-1.1-0.2-1.5-0.7c-1.3-1.4-1-4.6-0.7-7.5c0-0.4,0.1-0.7,0.1-0.9
			c0-0.7,0-0.8-0.8-1.3c-0.1,0-0.1-0.1-0.2-0.1c-0.2-0.1-0.4-0.3-0.6-0.5c-0.3-0.4-0.5-1-0.4-1.5c0.1-0.5,0.2-1.1,0.5-1.5
			c0.2-0.6,0.5-1.2,0.3-1.6c-0.2-0.2-0.4-0.4-0.7-0.5c-0.2-0.1-0.4-0.1-0.6-0.2c-0.9-0.2-2.2-0.5-2.5-1.8c-0.1-0.7,0.1-1.5,0.5-2.1
			C8,41.7,8,41.6,8,41.5c0.3-0.4,0.4-0.8,0.1-1.3c0-0.1-0.1-0.2-0.1-0.3c-0.1-0.2-0.2-0.4-0.2-0.6c-0.1-0.9,0.1-1.9,0.8-2.6
			c0.6-0.7,1.3-1.2,2.1-1.5c1.5-0.7,3.2-0.9,4.8-0.8c-0.1-0.9-0.4-1.7-1-2.3c-1.1-0.8-2.4-1.3-3.7-1.6c0,0-0.1,0-0.1,0
			c-0.1,0.5-0.5,0.9-1,0.9c-0.2,0-0.3,0-0.5-0.1l-4.2-2.5c-0.4-0.2-0.5-0.6-0.4-1C4.8,27.3,5.2,27,5.6,27c0.2,0,0.3,0,0.5,0.1
			L9.4,29c0.4-0.4,0.9-0.6,1.4-0.6c1,0.1,2,0.4,2.9,1c0.2,0.1,0.4,0.2,0.6,0.3c1,0.4,1.8,1,2.4,1.9c0.4,0.9,0.7,1.8,0.8,2.7
			c0.1,0.4,0.1,0.7,0.2,1c0.1,0.3,0,0.6-0.2,0.8c-0.2,0.2-0.5,0.4-0.8,0.4c-0.1,0-0.1,0-0.2,0c-0.6-0.1-1.2-0.2-1.7-0.2
			c-0.8,0-1.7,0.1-2.5,0.4c-0.4,0.1-2.6,0.8-2.6,2.1c0,0.3,0.1,0.6,0.2,0.8c0.3,0.5,0.4,1.1,0.3,1.6c-0.1,0.4-0.3,0.8-0.5,1.1
			c-0.2,0.3-0.4,0.6-0.4,0.9c0,0.3,0.8,0.5,1.4,0.7c0.7,0.1,1.4,0.5,1.9,1c0.9,1.1,0.4,2.4,0,3.4c-0.1,0.1-0.1,0.3-0.2,0.4
			c0,0.1-0.1,0.1-0.1,0.2c-0.1,0.2-0.2,0.4-0.2,0.6c0,0.2,0.1,0.3,0.5,0.4c0.3,0.1,0.5,0.2,0.7,0.4c0.5,0.4,0.8,1,0.8,1.6
			c0.1,1.1,0,2.3-0.2,3.4c-0.2,1.1-0.2,2.3-0.2,3.4c0.2,1.4,0.6,1.4,0.8,1.4h0c0.4,0,0.7-0.5,1-0.9l0.1-0.2c0.7-1.1,1.4-2.2,2-3.3
			l0,0c0.9-1.6,1.8-3.4,2.6-5.4c-0.1-0.1-0.2-0.2-0.2-0.3c-0.1-0.3,0-0.6,0.2-0.7c1.5-1.2,1-3.2,0.5-5.1c-0.1-0.5-0.3-1-0.4-1.5
			c-0.3-1.2-0.1-2.4,0.3-3.5c0.1-0.3,0.3-0.5,0.4-0.8c0.1-0.2,0.2-0.3,0.3-0.5l0.1-0.1c0.2-0.3,0.3-0.6,0.3-0.9
			c0-0.3-0.3-0.7-0.5-0.7h0c0,0-0.1,0-0.1,0c-0.5,0-0.9-0.4-0.9-0.9c0-0.8,0-1.6,0-2.3l0-0.1c0-0.2,0-0.5,0-0.7c0,0-0.1-0.2-0.4-0.3
			c-0.4-0.1-0.7-0.5-0.7-0.9c0.1-2.1,0.9-4.1,2.4-5.6c0.8-0.8,1.7-1.4,2.7-1.8c0.2-0.1,0.3-0.1,0.4-0.2c0.6-0.2,0.7-0.3,0.8-0.7
			c0.1-0.7-0.3-1.2-1-1.9c-0.4-0.4-0.4-0.9,0-1.3c1.6-1.9,3.5-3.5,5.7-4.7c-0.8-0.4-1.6-0.8-2.4-1.2c-0.5-0.2-0.8-0.7-0.7-1.2
			c0.5-2.3,2.1-4.3,4.3-5.1C31,7.1,30.5,7,30,6.9c-0.5-0.1-0.8-0.5-0.8-1c0-0.5,0.4-0.9,0.9-0.9h0.1c1.7,0.1,3.3,0.9,4.4,2.3
			c0.3,0.3,0.3,0.8,0.2,1.2C34.5,8.8,34.2,9,33.8,9c-1,0-2,0.4-2.8,1.1c-0.7,0.5-1.2,1.3-1.5,2.1c1.2,0.6,2.4,1.2,3.5,1.9
			c0.3,0.2,0.5,0.6,0.5,1c0,0.3-0.2,0.6-0.5,0.8c-2.4,1-4.5,2.5-6.2,4.4c0.7,0.9,1.1,2,1,3.1c-0.2,0.8-0.7,1.4-1.5,1.6
			c-0.2,0.1-0.3,0.2-0.5,0.2c-1.1,0.4-2.1,1.1-2.9,1.9c-0.8,0.9-1.3,2.1-1.4,3.3c0.5,0.2,0.9,0.6,1.1,1.1c0.1,0.5,0,1-0.1,1.4
			c0,0.1-0.1,0.3-0.1,0.4c0,0.4,0,0.7,0,1.1c0.8,0.4,1.4,1.2,1.5,2.1c0.1,0.8-0.2,1.7-0.6,2.4l0,0c-0.6,0.8-0.9,1.8-0.8,2.9
			c0.1,0.7,0.2,1.4,0.4,2.1c0.4,2,0.9,4.2-0.4,5.7c-0.8,2.5-1.9,4.9-3.2,7.2L19,57c-0.6,1.2-1.3,2.3-2.1,3.4
			c-0.4,0.7-1.1,1.2-1.9,1.5C14.9,61.9,14.7,61.9,14.4,61.9z M21,31.4c0.3,0.3,0.5,0.8,0.4,1.2c0.1-0.2,0.1-0.5,0.1-0.7
			C21.5,31.7,21.3,31.6,21,31.4z M15.6,31.8c0.1,0.1,0.2,0.2,0.2,0.4l0-0.1C15.7,32,15.7,31.9,15.6,31.8L15.6,31.8z M10.8,29.5
			c-0.2,0-0.5,0.1-0.6,0.2C10.4,29.5,10.6,29.5,10.8,29.5c0.2,0,0.4,0,0.6,0.1C11.2,29.5,11,29.5,10.8,29.5L10.8,29.5z M26.7,22.5
			c0,0.1,0,0.3,0,0.4c0,0.3-0.1,0.6-0.3,0.8c0.2-0.2,0.3-0.4,0.3-0.6C26.7,22.9,26.7,22.7,26.7,22.5z M28.2,12.7
			C28.2,12.7,28.3,12.8,28.2,12.7c0.2,0.1,0.4,0.2,0.6,0.2l-0.2-0.1L28.2,12.7l0.1-0.4c0.3-1.2,1-2.2,2-3c1-0.8,2.2-1.2,3.4-1.3
			c0,0,0.1,0,0.1,0c0,0,0-0.1,0-0.1c-0.8-1-1.9-1.7-3.2-1.9c0.9,0.2,1.8,0.6,2.5,1.2l0.7,0.6l-0.9,0.2C30.5,8.6,28.7,10.4,28.2,12.7
			C28.2,12.7,28.2,12.7,28.2,12.7L28.2,12.7z"/>
		<path id="Path_18" class="st1" d="M18.7,66.2c-0.2,0-0.2,0.4,0.1,0.4c4-0.4,8-0.7,12-0.9c1.9-0.1,3.9-0.1,5.8-0.1
			c1.9,0.1,3.9,0.1,5.8-0.2c0.2,0,0.2-0.3,0-0.4c-1.9-0.4-3.9-0.6-5.8-0.4c-2,0-4,0.1-6,0.2C26.5,64.9,22.6,65.4,18.7,66.2"/>
		<path id="Path_18_-_Outline" class="st1" d="M18.7,67.1L18.7,67.1c-0.4,0-0.7-0.3-0.7-0.7c0-0.3,0.2-0.6,0.5-0.7
			c3.9-0.8,7.9-1.3,11.9-1.5c2-0.1,4-0.2,6-0.2h0.1h0.7H38c1.5-0.1,3,0.1,4.5,0.5c0.3,0.1,0.5,0.4,0.5,0.7c0,0.3-0.2,0.6-0.5,0.6
			c-0.9,0.2-1.9,0.2-2.8,0.2c-0.5,0-1.1,0-1.6,0s-1,0-1.5,0h-0.1c-1.9,0-3.8,0-5.7,0.1C26.7,66.4,22.7,66.7,18.7,67.1
			C18.8,67.1,18.7,67.1,18.7,67.1z"/>
		<path id="Path_19" class="st1" d="M33.3,69.1c-0.2,0-0.3,0.2-0.2,0.4c0,0.1,0.1,0.1,0.1,0.2c1.7,1,3.8,1,5.7,1
			c1.8,0,4.2,0.1,5.7-1c0.2-0.1,0.2-0.4,0.1-0.5c-0.1-0.1-0.1-0.1-0.2-0.2c-1.8-0.4-3.8,0.2-5.6,0.2C37.1,69.1,35.2,68.7,33.3,69.1"
			/>
		<path id="Path_19_-_Outline" class="st1" d="M38.4,71.1c-1.9,0.1-3.7-0.2-5.4-1c-0.3-0.2-0.4-0.5-0.4-0.9c0.1-0.3,0.3-0.6,0.6-0.6
			c0.6-0.1,1.2-0.1,1.8-0.1c0.6,0,1.3,0,1.9,0.1c0.7,0,1.3,0.1,2,0.1c0.7,0,1.3-0.1,2-0.2c0.8-0.1,1.5-0.2,2.3-0.2
			c0.5,0,1,0,1.5,0.2c0.3,0.1,0.6,0.3,0.6,0.7c0.1,0.4-0.1,0.7-0.4,0.9c-1.5,1.1-3.9,1.1-5.6,1.1h-0.4L38.4,71.1z M34,69.5
			c1.4,0.5,2.9,0.7,4.4,0.6h0.5h0.4c1.5,0,3.6,0,4.9-0.8c-0.3-0.1-0.7-0.1-1-0.1c-0.7,0-1.4,0.1-2.2,0.2c-0.7,0.1-1.4,0.2-2.1,0.2
			c-0.7,0-1.4,0-2.1-0.1c-0.6,0-1.2-0.1-1.9-0.1C34.7,69.4,34.4,69.4,34,69.5L34,69.5z"/>
	</g>
</g>
</svg>
