<?xml version="1.0" encoding="utf-8"?>
<!-- Generator: Adobe Illustrator 25.2.1, SVG Export Plug-In . SVG Version: 6.00 Build 0)  -->
<svg version="1.1" id="Lock_Icon" xmlns="http://www.w3.org/2000/svg" xmlns:xlink="http://www.w3.org/1999/xlink" x="0px" y="0px"
	 viewBox="0 0 57.1 57.1" style="enable-background:new 0 0 57.1 57.1;" xml:space="preserve">
<style type="text/css">
	.st0{clip-path:url(#SVGID_2_);}
	.st1{fill:#C30000;}
</style>
<g>
	<defs>
		<rect id="SVGID_1_" x="11.5" width="34.1" height="57.1"/>
	</defs>
	<clipPath id="SVGID_2_">
		<use xlink:href="#SVGID_1_"  style="overflow:visible;"/>
	</clipPath>
	<g id="Group_9" class="st0">
		<path id="Path_12" class="st1" d="M29.5,57.1c4.5,0,5.1,0,8.3-1.9c6.4-3.2,8.3-9.6,7.7-25c-0.6-8.3-0.6-8.3-1.9-8.3
			c-1.9,0-1.9-1.3-2.6-10.9c-0.6-4.5-1.3-8.3-1.3-9C39.1,1.3,30.1,0,26.9,0c-4.5,0-6.4,0.6-9,5.1C16,8.3,16,9.6,16,16
			c0,5.8-0.6,7.7-1.3,7.7c-2.6-1.3-3.2-0.6-3.2,1.3c0,1.3,0.6,7.1,0.6,12.8c0.6,15.4,0.6,14.8,4.5,16.7c1.6,1,3.4,1.8,5.1,2.6H29.5z
			 M21.8,3.2c1.9-1.9,1.9-1.9,7.1-1.3c2.4,0,4.8,0.4,7.1,1.3c1.9,0.6,2.6,2.6,3.2,12.2c0.6,5.8,0.6,6.4-0.6,7.1
			c-0.6,0-1.3-0.6-1.9-5.8c-0.6-3.2-1.3-6.4-1.3-7.1c0-1.3-5.1-5.1-7.1-5.1s-5.8,2.6-7.1,5.1c-0.6,1.3-0.6,3.2-0.6,7.7
			c-0.6,6.4-1.3,8.3-1.9,4.5C16.6,15.4,17.9,6.4,21.8,3.2 M35.2,22.5c-2.1,0.5-4.3,0.7-6.4,0.6L23,23.7l-0.6-2.6
			c-1.3-7.1,0-11.5,3.9-13.5C28.2,6.5,30.8,7,32,9c0,0,0,0,0,0C33.3,10.3,35.9,21.8,35.2,22.5 M16.6,51.3c-1.9-1.3-1.9-2.6-2.6-11.5
			c0-10.9,0-13.5,1.3-12.8h1.3c0-0.6,0.6-0.6,1.3-0.6c1.7,0,3.5-0.2,5.1-0.6c1.9,0,7.1-0.6,10.3-0.6c2.6-0.1,5.1-0.3,7.7-0.6
			c1.9,0,3.2,1.9,1.3,3.2c-0.6,0-0.6,0.6,0.6,0.6c0,0.6,0.6,0.6,0,0.6v1.3c1.3,0.6,1.3,9,0,13.5c-0.6,4.5-2.6,7.7-5.1,9.6
			c-3.2,1.9-5.1,1.9-11.5,1.9C19.8,54.5,18.5,53.9,16.6,51.3"/>
		<path id="Path_13" class="st1" d="M31.4,49.4c3.2,0,4.5-1.3,2.6-3.2c-0.6,0-0.6-0.6-0.6-1.3c-0.1-0.7-0.3-1.3-0.6-1.9
			c-1.3-0.6-1.3-6.4-0.6-9s-0.6-3.8-3.2-3.2c-1.9,0-3.2,1.3-3.8,5.1c-0.1,0.9,0.1,1.8,0.6,2.6c0.6,0.6,0.6,1.3-1.3,5.8L23,49.4
			c0,0.6,0.6,0.6,3.2,0.6C27.5,49.4,30.1,49.4,31.4,49.4"/>
	</g>
</g>
</svg>
