<?xml version="1.0" encoding="utf-8"?>
<!-- Generator: Adobe Illustrator 17.1.0, SVG Export Plug-In . SVG Version: 6.00 Build 0)  -->
<!DOCTYPE svg PUBLIC "-//W3C//DTD SVG 1.1//EN" "http://www.w3.org/Graphics/SVG/1.1/DTD/svg11.dtd">
<svg version="1.1" xmlns="http://www.w3.org/2000/svg" xmlns:xlink="http://www.w3.org/1999/xlink" x="0px" y="0px"
	 viewBox="0 0 145 60" enable-background="new 0 0 145 60" xml:space="preserve">  
<g id="_x33_20---Step-1" transform="translate(-89.000000, -2679.000000)">
              <g id="Media-Badges" transform="translate(0.000000, 2333.000000)">
                  <path id="HuffingtonPost" fill="#606060" d="M146,357.4c0,2.1,0,2.4,1.2,2.5l0.6,0.1c0.1,0.1,0.1,0.5,0,0.5c-1.1,0-1.8-0.1-2.6-0.1
				s-1.5,0-2.7,0.1c-0.1-0.1-0.2-0.4,0-0.5l0.7-0.1c1.1-0.1,1.2-0.4,1.2-2.5v-8.7c0-0.6,0-0.6-0.5-0.6h-1.1c-0.8,0-1.9,0-2.4,0.5
				c-0.5,0.5-0.6,0.8-0.9,1.4c-0.2,0.1-0.5,0-0.5-0.2c0.3-0.9,0.6-2.1,0.7-2.9c0.1,0,0.3-0.1,0.4,0c0.1,0.6,0.7,0.6,1.6,0.6h7.9
				c1.1,0,1.3,0,1.5-0.5c0.1,0,0.3,0,0.4,0.1c-0.2,0.8-0.4,2.4-0.3,3c-0.1,0.2-0.5,0.2-0.5,0c-0.1-0.5-0.2-1.2-0.5-1.5
				c-0.5-0.4-1.2-0.5-2.3-0.5h-1.4c-0.5,0-0.5,0-0.5,0.6L146,357.4z M158.5,354c-0.9,0-1,0-1,0.6v2.7c0,2.1,0.1,2.4,1.2,2.5l0.5,0.1
				c0.1,0.1,0.1,0.5,0,0.5c-1.1,0-1.7-0.1-2.5-0.1c-0.8,0-1.5,0-2.3,0.1c-0.1-0.1-0.2-0.4,0-0.5l0.4-0.1c1.1-0.2,1.1-0.4,1.1-2.5v-7
				c0-2.1-0.2-2.4-1.2-2.5h-0.5c-0.1-0.1-0.1-0.5,0-0.5c1,0,1.6,0.1,2.5,0.1c0.7,0,1.5,0,2.3-0.1c0.1,0.1,0.2,0.5,0,0.5h-0.4
				c-1.1,0.1-1.2,0.5-1.2,2.5v2.3c0,0.6,0,0.6,1,0.6h5.6c0.9,0,1,0,1-0.6v-2.3c0-2.1,0-2.4-1.2-2.5h-0.4c-0.1-0.1-0.1-0.5,0-0.5
				c0.9,0,1.5,0.1,2.4,0.1c0.7,0,1.5,0,2.3-0.1c0.1,0.1,0.2,0.5,0,0.5h-0.5c-1.1,0.1-1.2,0.5-1.2,2.5v7c0,2.1,0,2.3,1.2,2.5l0.5,0.1
				c0.1,0.1,0.1,0.5,0,0.5c-0.9,0-1.6-0.1-2.4-0.1c-0.8,0-1.5,0-2.4,0.1c-0.1-0.1-0.2-0.4,0-0.5l0.4-0.1c1.2-0.2,1.2-0.4,1.2-2.5
				v-2.7c0-0.5,0-0.6-1-0.6H158.5z M173.3,350.4c0-2,0-2.4-1.2-2.5h-0.3c-0.1-0.1-0.1-0.5,0-0.5c0.8,0,1.5,0.1,2.3,0.1h3.6
				c1.3,0,2.4,0,2.6-0.1c0.1,0.4,0.3,1.7,0.3,2.6c-0.1,0.1-0.4,0.2-0.5,0c-0.3-0.9-0.5-1.6-1.5-1.8c-0.5-0.1-1-0.1-1.9-0.1h-1.4
				c-0.5,0-0.5,0-0.5,0.8v3.9c0,0.5,0.1,0.5,0.6,0.5h1.1c0.8,0,1.5,0,1.6-0.1c0.2-0.1,0.4-0.2,0.5-0.7l0.2-0.8
				c0.1-0.1,0.5-0.1,0.5,0c0,0.5-0.1,1.3-0.1,2s0.1,1.5,0.1,1.9c-0.1,0.2-0.5,0.2-0.5,0l-0.2-0.7c-0.1-0.4-0.2-0.6-0.6-0.7
				c-0.3-0.1-0.7-0.1-1.5-0.1h-1.1c-0.5,0-0.6,0-0.6,0.5v2.7c0,1,0.1,1.7,0.4,2c0.3,0.3,0.6,0.5,2.4,0.5c1.5,0,2.1-0.1,2.6-0.3
				c0.4-0.2,0.9-0.9,1.4-1.9c0.2-0.1,0.5,0,0.5,0.2c-0.2,0.7-0.6,2.2-0.9,2.7c-1.7,0-3.5-0.1-5.3-0.1H174c-0.8,0-1.5,0-2.6,0.1
				c-0.1-0.1-0.2-0.4,0-0.5l0.6-0.1c1.1-0.1,1.2-0.4,1.2-2.5L173.3,350.4z M93.8,373c-0.9,0-1,0-1,0.6v2.7c0,2.1,0.1,2.4,1.2,2.5
				l0.5,0.1c0.1,0.1,0.1,0.5,0,0.5c-1.1,0-1.7-0.1-2.5-0.1c-0.8,0-1.5,0-2.3,0.1c-0.1-0.1-0.2-0.4,0-0.5l0.4-0.1
				c1.1-0.2,1.1-0.4,1.1-2.5v-7c0-2.1-0.2-2.4-1.2-2.5h-0.5c-0.1-0.1-0.1-0.5,0-0.5c1,0,1.6,0.1,2.5,0.1c0.7,0,1.5,0,2.3-0.1
				c0.1,0.1,0.2,0.5,0,0.5h-0.4c-1.1,0.1-1.2,0.5-1.2,2.5v2.3c0,0.6,0,0.6,1,0.6h5.6c0.9,0,1,0,1-0.6v-2.3c0-2.1,0-2.4-1.2-2.5h-0.4
				c-0.1-0.1-0.1-0.5,0-0.5c0.9,0,1.5,0.1,2.4,0.1c0.7,0,1.5,0,2.3-0.1c0.1,0.1,0.2,0.5,0,0.5H103c-1.1,0.1-1.2,0.5-1.2,2.5v7
				c0,2.1,0,2.3,1.2,2.5l0.5,0.1c0.1,0.1,0.1,0.5,0,0.5c-0.9,0-1.6-0.1-2.4-0.1c-0.8,0-1.5,0-2.4,0.1c-0.1-0.1-0.2-0.4,0-0.5
				l0.4-0.1c1.2-0.2,1.2-0.4,1.2-2.5v-2.7c0-0.5,0-0.6-1-0.6H93.8z M117.8,371.3c0-1.2,0-3.5-0.4-4.1c-0.2-0.3-0.5-0.4-1-0.5H116
				c-0.1-0.2-0.1-0.4,0-0.5c0.7,0,1.5,0.1,2.3,0.1c0.8,0,1.4,0,2.1-0.1c0.2,0.1,0.2,0.4,0,0.5h-0.5c-0.5,0-0.8,0.2-1,0.5
				c-0.3,0.6-0.3,2.9-0.3,4v2.2c0,1.7-0.3,3.5-1.4,4.6c-0.8,0.9-2.3,1.5-3.7,1.5c-1.4,0-2.7-0.3-3.6-1.1c-1-0.8-1.5-2.3-1.5-4.6
				v-4.5c0-2,0-2.4-1.2-2.5h-0.5c-0.1-0.1-0.1-0.5,0-0.5c1,0,1.6,0.1,2.5,0.1c0.8,0,1.5,0,2.4-0.1c0.1,0.1,0.2,0.4,0,0.5h-0.5
				c-1.1,0.1-1.2,0.5-1.2,2.5v4.2c0,3.2,1,5.2,4,5.2c2.8,0,3.9-2.3,3.9-5.2V371.3z M126.4,371.9c0,0.5,0.1,0.5,0.6,0.5
				c0,0,2.8,0,3-0.1c0.2-0.1,0.4-0.2,0.5-0.7l0.2-0.8c0.1-0.1,0.5-0.1,0.5,0c0,0.5,0,3.5,0,3.9c-0.1,0.1-0.4,0.1-0.5,0l-0.2-0.7
				c-0.1-0.4-0.3-0.6-0.6-0.7c-0.3-0.1-2.9-0.1-2.9-0.1c-0.5,0-0.6,0-0.6,0.5v2.7c0,2.1,0,2.4,1.2,2.5l0.6,0.1
				c0.1,0.1,0.1,0.5,0,0.5c-1.2,0-4.2-0.1-5.1,0c-0.1-0.1-0.2-0.4,0-0.5l0.5-0.1c1.1-0.2,1.2-0.4,1.2-2.5v-7c0-2.1,0-2.4-1.2-2.5
				h-0.3c-0.1-0.1-0.1-0.5,0-0.5c0.8,0,8.3,0.1,8.6,0c0,0.9,0,1.8,0.1,2.6c-0.1,0.1-0.4,0.2-0.5,0.1c-0.2-0.9-0.4-1.6-1.4-1.8
				c-0.5-0.1-3.1-0.1-3.1-0.1c-0.5,0-0.5,0-0.5,0.8V371.9z M138.1,371.9c0,0.5,0.1,0.5,0.6,0.5c0,0,2.8,0,3-0.1
				c0.2-0.1,0.4-0.2,0.5-0.7l0.2-0.8c0.1-0.1,0.5-0.1,0.5,0c0,0.5,0,3.5,0,3.9c-0.1,0.1-0.4,0.1-0.5,0l-0.2-0.7
				c-0.1-0.4-0.3-0.6-0.6-0.7c-0.3-0.1-2.9-0.1-2.9-0.1c-0.5,0-0.6,0-0.6,0.5v2.7c0,2.1,0,2.4,1.2,2.5l0.6,0.1
				c0.1,0.1,0.1,0.5,0,0.5c-1.2,0-4.2-0.1-5.1,0c-0.1-0.1-0.2-0.4,0-0.5l0.5-0.1c1.1-0.2,1.2-0.4,1.2-2.5v-7c0-2.1,0-2.4-1.2-2.5
				h-0.3c-0.1-0.1-0.1-0.5,0-0.5c0.8,0,8.3,0.1,8.6,0c0,0.9,0,1.8,0.1,2.6c-0.1,0.1-0.4,0.2-0.5,0.1c-0.2-0.9-0.4-1.6-1.4-1.8
				c-0.5-0.1-3.1-0.1-3.1-0.1c-0.5,0-0.5,0-0.5,0.8V371.9z M148.4,369.4c0-2.1,0-2.4-1.2-2.6h-0.5c-0.1-0.1-0.1-0.5,0-0.5
				c1,0,1.6,0.1,2.5,0.1c0.8,0,1.5,0,2.5-0.1c0.1,0.1,0.2,0.5,0,0.5h-0.5c-1.2,0.1-1.2,0.5-1.2,2.6v7c0,2.1,0,2.4,1.2,2.5l0.5,0.1
				c0.1,0.1,0.1,0.5,0,0.5c-1,0-1.6-0.1-2.5-0.1c-0.8,0-1.5,0-2.5,0.1c-0.1-0.1-0.2-0.4,0-0.5l0.5-0.1c1.2-0.2,1.2-0.5,1.2-2.5
				V369.4z M167.2,376c0,0.5,0,2.9,0.1,3.5c0,0.1-0.2,0.2-0.4,0.2c-0.3-0.4-0.8-1-2.6-2.9l-4.6-5.2c-0.5-0.6-1.8-2.2-2.3-2.6
				c-0.1,0.3-0.1,0.7-0.1,1.3v4.3c0,0.9,0,3.5,0.4,4.1c0.1,0.2,0.5,0.4,1,0.4l0.6,0.1c0.1,0.2,0.1,0.4,0,0.5c-0.9,0-1.5-0.1-2.3-0.1
				c-0.8,0-1.4,0-2,0.1c-0.2-0.1-0.2-0.4,0-0.5l0.5-0.1c0.5-0.1,0.7-0.2,0.8-0.4c0.3-0.7,0.3-3.1,0.3-4v-5.6c0-0.5,0-1-0.5-1.4
				c-0.3-0.3-0.7-0.5-1.2-0.5h-0.4c-0.1-0.1-0.1-0.5,0-0.5c0.8,0.1,1.8,0.1,2.2,0.1c0.3,0,0.6,0,0.9-0.1c0.4,1,2.7,3.6,3.4,4.3
				l1.9,2.1c1.4,1.5,2.3,2.6,3.2,3.6c0.1-0.1,0.1-0.5,0.1-0.8v-4.2c0-0.9,0-3.5-0.4-4.1c-0.1-0.2-0.5-0.3-1.2-0.4h-0.4
				c-0.2-0.1-0.1-0.5,0-0.5c0.9,0,1.5,0.1,2.3,0.1c0.8,0,1.4,0,2-0.1c0.2,0.1,0.2,0.4,0,0.5h-0.3c-0.6,0.1-1,0.3-1.1,0.5
				c-0.4,0.7-0.3,3.1-0.3,4V376z M183.1,377.3c0,0.8,0.1,1.3,0.5,1.4c0.1,0.1,0.1,0.2,0,0.3c-0.3,0-0.5,0.1-1,0.2
				c-1,0.3-2.5,0.5-3.6,0.5c-2.4,0-4.5-0.6-6-2.2c-1.2-1.2-1.8-2.7-1.8-4.5c0-1.6,0.5-3.4,1.7-4.6c1.3-1.4,3.3-2.3,6.2-2.3
				c1.1,0,2.2,0.2,2.5,0.3c0.4,0.1,1,0.2,1.2,0.2c0,0.6,0.1,1.6,0.3,2.8c-0.1,0.2-0.5,0.2-0.5,0.1c-0.5-2.1-2-2.8-4-2.8
				c-3.8,0-5.5,2.7-5.5,5.6c0,3.7,1.9,6.7,5.9,6.7c1.2,0,1.9-0.3,2.2-0.5c0.1-0.2,0.2-0.5,0.2-1.1v-0.8c0-1.6-0.1-1.7-1.3-1.9
				l-0.8-0.1c-0.2-0.1-0.2-0.5,0-0.5c0.5,0,1.6,0.1,2.8,0.1c0.7,0,1.5,0,2.1-0.1c0.2,0.1,0.2,0.4,0,0.5h-0.3
				c-0.8,0.1-0.8,0.6-0.8,1.6L183.1,377.3L183.1,377.3z M193.4,376.4c0,2.1,0,2.4,1.2,2.5l0.6,0.1c0.1,0.1,0.1,0.5,0,0.5
				c-1.1,0-1.8-0.1-2.6-0.1c-0.8,0-1.5,0-2.7,0.1c-0.1-0.1-0.2-0.4,0-0.5l0.7-0.1c1.1-0.1,1.2-0.4,1.2-2.5v-8.7c0-0.6,0-0.6-0.5-0.6
				h-1.1c-0.8,0-1.9,0-2.4,0.5c-0.5,0.5-0.6,0.8-0.9,1.4c-0.2,0.1-0.5,0-0.5-0.2c0.3-0.9,0.6-2.1,0.7-2.9c0.1,0,0.3-0.1,0.4,0
				c0.1,0.6,0.7,0.6,1.6,0.6h7.9c1.1,0,1.3,0,1.5-0.5c0.1,0,0.3,0,0.4,0.1c-0.2,0.8-0.4,2.4-0.3,3c-0.1,0.2-0.5,0.2-0.5,0
				c-0.1-0.5-0.2-1.2-0.5-1.5c-0.5-0.4-1.2-0.5-2.3-0.5h-1.4c-0.5,0-0.5,0-0.5,0.6L193.4,376.4z M201,373c0-3.9,2.9-6.9,7-6.9
				c4.6,0,6.8,3.3,6.8,6.7c0,3.9-3,6.8-6.8,6.8C203.6,379.7,201,376.5,201,373z M212.8,373.4c0-3.2-1.5-6.7-5.2-6.7
				c-2,0-4.6,1.4-4.6,5.6c0,2.9,1.4,6.7,5.3,6.7C210.6,379,212.8,377.3,212.8,373.4z M229.6,376c0,0.5,0,2.9,0.1,3.5
				c0,0.1-0.2,0.2-0.4,0.2c-0.3-0.4-0.8-1-2.6-2.9l-4.6-5.2c-0.5-0.6-1.8-2.2-2.3-2.6c-0.1,0.3-0.1,0.7-0.1,1.3v4.3
				c0,0.9,0,3.5,0.4,4.1c0.1,0.2,0.5,0.4,1,0.4l0.6,0.1c0.1,0.2,0.1,0.4,0,0.5c-0.9,0-1.5-0.1-2.3-0.1c-0.8,0-1.4,0-2,0.1
				c-0.2-0.1-0.2-0.4,0-0.5l0.5-0.1c0.5-0.1,0.7-0.2,0.8-0.4c0.3-0.7,0.3-3.1,0.3-4v-5.6c0-0.5,0-1-0.5-1.4
				c-0.3-0.3-0.7-0.5-1.2-0.5h-0.4c-0.1-0.1-0.1-0.5,0-0.5c0.8,0.1,1.8,0.1,2.2,0.1c0.3,0,0.6,0,0.9-0.1c0.4,1,2.7,3.6,3.4,4.3
				l1.9,2.1c1.4,1.5,2.3,2.6,3.2,3.6c0.1-0.1,0.1-0.5,0.1-0.8v-4.2c0-0.9,0-3.5-0.4-4.1c-0.1-0.2-0.5-0.3-1.2-0.4H227
				c-0.2-0.1-0.1-0.5,0-0.5c0.9,0,1.5,0.1,2.3,0.1c0.8,0,1.4,0,2-0.1c0.2,0.1,0.2,0.4,0,0.5H231c-0.6,0.1-1,0.3-1.1,0.5
				c-0.4,0.7-0.3,3.1-0.3,4V376z M138,395.1c0,2.1,0,2.3,1.3,2.5l0.5,0.1c0.1,0.1,0.1,0.5,0,0.5c-1.1,0-1.7-0.1-2.6-0.1
				c-0.8,0-1.5,0-2.4,0.1c-0.1-0.1-0.2-0.4,0-0.5l0.5-0.1c1.1-0.2,1.2-0.4,1.2-2.5v-7.2c0-1.6,0-2-0.9-2.1l-0.7-0.1
				c-0.2-0.1-0.1-0.5,0-0.5c1-0.2,2.3-0.2,3.9-0.2c1.6,0,2.8,0.2,3.7,0.8c0.9,0.5,1.5,1.5,1.5,2.9c0,1.8-1.1,2.7-2,3.1
				c-0.8,0.5-1.9,0.5-2.7,0.5c-0.2-0.1-0.2-0.4,0-0.4c2.1-0.4,2.9-1.5,2.9-3.3c0-1.9-1.1-3.1-3.2-3.1c-1,0-1.1,0.1-1.1,0.7V395.1z
				 M146.8,391.8c0-3.9,2.9-6.9,7-6.9c4.6,0,6.8,3.3,6.8,6.7c0,3.9-3,6.8-6.8,6.8C149.5,398.4,146.8,395.3,146.8,391.8z
				 M158.7,392.1c0-3.2-1.5-6.7-5.2-6.7c-2,0-4.6,1.4-4.6,5.6c0,2.9,1.4,6.7,5.3,6.7C156.4,397.8,158.7,396,158.7,392.1z
				 M167.1,398.4c-1.6,0-2.6-0.5-3.1-0.7c-0.3-0.5-0.5-1.8-0.5-2.7c0.1-0.2,0.4-0.2,0.5-0.1c0.3,1,1.1,2.9,3.4,2.9
				c1.6,0,2.5-1.1,2.5-2.3c0-0.8-0.2-1.8-1.6-2.7l-1.8-1.2c-1-0.6-2.1-1.7-2.1-3.4c0-1.8,1.5-3.4,4-3.4c0.6,0,1.3,0.1,1.8,0.3
				c0.3,0.1,0.5,0.1,0.7,0.1c0.2,0.5,0.4,1.5,0.4,2.4c-0.1,0.1-0.4,0.2-0.5,0.1c-0.3-0.9-0.8-2.2-2.6-2.2c-1.9,0-2.4,1.3-2.4,2.2
				c0,1.1,0.9,2,1.6,2.4l1.5,1c1.3,0.7,2.5,1.9,2.5,3.7C171.3,397,169.6,398.4,167.1,398.4z M181,395.1c0,2.1,0,2.4,1.2,2.5l0.6,0.1
				c0.1,0.1,0.1,0.5,0,0.5c-1.1,0-1.8-0.1-2.6-0.1c-0.8,0-1.5,0-2.7,0.1c-0.1-0.1-0.2-0.4,0-0.5l0.7-0.1c1.1-0.1,1.2-0.4,1.2-2.5
				v-8.7c0-0.6,0-0.6-0.5-0.6h-1.1c-0.8,0-1.9,0-2.4,0.5c-0.5,0.5-0.6,0.8-0.9,1.4c-0.2,0.1-0.5,0-0.5-0.2c0.3-0.9,0.6-2.1,0.7-2.9
				c0.1,0,0.3-0.1,0.4,0c0.1,0.6,0.7,0.6,1.6,0.6h7.9c1.1,0,1.3,0,1.5-0.5c0.1,0,0.3,0,0.4,0.1c-0.2,0.8-0.4,2.4-0.3,3
				c-0.1,0.2-0.5,0.2-0.5,0c-0.1-0.5-0.2-1.2-0.5-1.5c-0.5-0.4-1.2-0.5-2.3-0.5h-1.4c-0.5,0-0.5,0-0.5,0.6L181,395.1z"></path>
              </g>
          </g>
          </svg>