<?xml version="1.0" encoding="utf-8"?>
<!-- Generator: Adobe Illustrator 17.1.0, SVG Export Plug-In . SVG Version: 6.00 Build 0)  -->
<!DOCTYPE svg PUBLIC "-//W3C//DTD SVG 1.1//EN" "http://www.w3.org/Graphics/SVG/1.1/DTD/svg11.dtd">
<svg version="1.1" xmlns="http://www.w3.org/2000/svg" xmlns:xlink="http://www.w3.org/1999/xlink" x="0px" y="0px"
	 viewBox="0 0 190 20" enable-background="new 0 0 190 20" xml:space="preserve">    
<g id="_x33_20---Step-1" transform="translate(-65.000000, -2775.000000)">
              <g id="Media-Badges" transform="translate(0.000000, 2333.000000)">
                  <path id="NYT" fill="#606060" d="M252.1,459.6c-0.5-1.2-1.7-2-3-2c-0.3,0-1.2,0-1.9,0.5c0.5-0.8,1.8-2.3,3.6-3.3l1.3,1L252.1,459.6
				L252.1,459.6z M253.9,451.4c-0.7,1.2-2.3,2.4-3.2,3.1l-1.1-0.9V450c0.4,1,1.5,1.8,2.7,1.8C253,451.8,253.4,451.7,253.9,451.4z
				 M255,454.5l-2-1.5c1.3-1.2,1.8-2.7,1.8-3.8c0-0.1,0-0.4,0-0.7h-0.2c-0.2,0.5-0.6,1-1.4,1c-0.8,0-1.4-0.4-1.8-1l-4.6,2.5v3.8
				l1.7,1.4c-1.7,1.5-2.1,2.6-2.1,3.4c0,1,0.5,1.8,1.4,2.1l0.1-0.2c-0.2-0.2-0.4-0.3-0.4-0.8c0-0.3,0.4-0.8,1.2-0.8
				c1,0,1.6,0.7,1.9,1.1l4.5-2.7L255,454.5L255,454.5z M240.4,455.5v-5.1l0.2-0.1l2.3,3.6L240.4,455.5z M245.6,457.2l-2.5,2
				l-2.6-2.1v-1.2l4.9-3.3v-0.1l-2.4-3.7l-5.3,2.9v7l3.6,2.6l4.7-3.7L245.6,457.2z M236.6,458.7l-0.7,0.5l-1.1-1v-7l1.1-0.8
				l-0.2-0.2l-0.9,0.7l-2.4-2.2l-3,2.2l-2.3-2.2l-3,2.1l-1.8-2.1l-3,2.1l0.1,0.3l0.7-0.5l1,1.1v6.7l-0.8,0.8l2.4,2l2.3-2.1l-0.9-0.9
				v-7l0.9-0.6l1.6,1.5v6.2l-0.8,0.8l2.4,2l2.2-2.1l-0.9-0.9v-7l0.8-0.5l1.7,1.4v6.1l-0.7,0.7l2.4,2.2l3.2-2.2L236.6,458.7z
				 M219.4,458.9l-0.8,0.5l-1-1v-7.1l1-0.7l-0.2-0.2l-0.8,0.6l-1.8-2.1l-2.9,2.1l0.2,0.3l0.7-0.5l0.9,1.1v6.7l-1.3,1l0.1,0.2
				l0.7-0.5l2.3,2.1l3.1-2.1L219.4,458.9z M216.2,443.6h-0.1l-2.1,1.7v0.1l1.7,2h0.2l2.1-1.7v-0.1L216.2,443.6L216.2,443.6z
				 M203.7,456l-1.3,0.6c-0.7-0.9-1.2-2.2-1.2-3.9c0-0.7,0.1-1.6,0.3-2.2l2.2-1V456L203.7,456z M212.7,444.6c0-2-1.9-2.6-3.5-2.6
				v0.3c1,0,1.7,0.3,1.7,1c0,0.4-0.3,1-1.3,1c-0.8,0-2.2-0.4-3.4-0.8c-1.3-0.4-2.5-0.9-3.6-0.9c-2,0-3.5,1.5-3.5,3.3
				c0,1.5,1.1,2,1.6,2.2l0.1-0.2c-0.3-0.2-0.6-0.4-0.6-1c0-0.4,0.4-1.2,1.4-1.2c0.9,0,2.2,0.4,3.8,0.9c1.4,0.4,3,0.8,3.8,0.9v3.2
				l-1.6,1.3v0.1l1.6,1.4v4.4c-0.8,0.5-1.7,0.6-2.6,0.6c-1.5,0-2.9-0.4-4.1-1.6l4.2-2v-7.1l-5.2,2.3c0.5-1.4,1.6-2.3,2.7-3l-0.1-0.2
				c-3.1,0.8-5.9,3.7-5.9,7.2c0,4.2,3.4,7.3,7.3,7.3c4.2,0,6.8-3.3,6.8-6.7h-0.2c-0.6,1.3-1.5,2.6-2.7,3.2v-4.3l1.7-1.3v-0.1
				l-1.6-1.3v-3.2C211.1,447.5,212.7,446.5,212.7,444.6L212.7,444.6z M184.2,458.3l-1.4,1l0.2,0.2l0.7-0.5l2.3,2.1l3.1-2.1l-0.2-0.2
				l-0.8,0.5l-1-1v-15.9h-0.2l-3.7,2.5v0.2c0.4,0.2,1.1,0.3,1.1,1.6L184.2,458.3z M195.6,458.9l-3.5,2.3l-4.8-7.2l3.4-5.2h0.2
				c0.4,0.4,1.1,0.8,1.7,0.8c0.7,0,1.2-0.4,1.5-0.8h0.2c-0.1,2.1-1.5,3.3-2.6,3.3s-1.6-0.5-2.2-0.8l-0.3,0.5l5.2,7.6l1-0.6
				L195.6,458.9z M183.1,449h-0.2c-0.3,0.2-0.6,0.4-0.9,0.4c-0.4,0-0.9-0.2-1.2-0.6h-0.2l-1.7,1.9l-1.8-1.9l-3.1,2.1l0.1,0.2
				l0.8-0.5l1.1,1.1v6.5l-1.4,1l0.2,0.2l0.7-0.5l2.5,2.1l3.2-2.1l-0.1-0.2l-0.9,0.5l-1.2-1.1V451c0.5,0.6,1.1,1.1,1.8,1.1
				C182.2,452.1,183,450.5,183.1,449L183.1,449z M167.8,457.6v-7.4l2.6,1.9v7.4L167.8,457.6z M173.3,451.1l-3.3-2.4l-5,2.9v6.7
				l-1,0.8l0.1,0.2l0.8-0.7l3.3,2.4l5.1-3.1L173.3,451.1L173.3,451.1z M159.2,458.4c0,0.8-0.6,1.6-1.6,1.6c-0.2,0-0.7,0-0.8,0v-6
				c0.2-0.2,0.7-0.6,1.3-0.6c0.5,0,0.9,0.3,1.2,0.6L159.2,458.4L159.2,458.4z M159.2,453.6c-0.2-0.2-0.7-0.5-1.2-0.5s-1,0.3-1.3,0.5
				v-2.7c0.2,0.2,0.7,0.5,1.3,0.5c0.5,0,1-0.3,1.2-0.5V453.6z M159.2,450.5c-0.3,0.3-0.7,0.6-1.2,0.6c-0.6,0-1-0.3-1.3-0.6v-4.6
				l1.1-0.7l1.4,1.3V450.5z M163.4,444.1l-1,0.9l-2.3-2l-3.4,2.5v-2.4h-0.3l0.1,16.7c-0.3,0-1.2-0.2-2-0.4l-0.1-14
				c0-1-0.7-2.5-2.6-2.5c-1.9,0-3.1,1.4-3.1,2.9h0.3c0.1-0.6,0.4-1.2,1-1.2s1.2,0.4,1.2,1.8v4c-1.9,0.1-3,1.1-3,2.4
				c0,0.8,0.4,2.1,1.7,2.1v-0.2c-0.4-0.2-0.5-0.5-0.5-0.7c0-0.6,0.6-0.8,1.4-0.8h0.4v6.4c-1.5,0.5-2.2,1.6-2.2,2.9
				c0,1.7,1.4,3,3.4,3c1.4,0,6.3-1,6.9-1c0.8,0,1.1,0.4,1.1,0.9c0,0.7-0.3,1-0.7,1.1v0.2c1.7-0.3,2.7-1.3,2.7-2.9s-1.5-2.5-3.2-2.5
				c-0.9,0-6.7,1-7.2,1c-0.7,0-1.6-0.3-1.6-1.3c0-0.9,0.7-1.5,2.5-1.5c1,0,2,0.1,3.2,0.4c1.3,0.3,2.4,0.6,3.4,0.6
				c1.5,0,2.9-0.5,2.9-2.7v-12.7l1.2-1L163.4,444.1z M144.2,449.8l-0.8,0.6l-2-1.7l-2.3,2.1l0.9,0.9v7.8l-2.5-1.6v-6.3l0.8-0.6
				l-2.4-2.2l-2.2,2.1l0.9,0.9v7.4l-0.3,0.2l-2.2-1.5v-6.2c0-1.4-0.7-1.8-1.6-2.4c-0.8-0.5-1.1-0.9-1.1-1.6c0-0.6,0.6-0.9,0.9-1.1
				v-0.2c-0.8,0-3,0.8-3,2.8c0,1,0.5,1.5,1,2s1,1,1,1.8v6l-1.1,0.9l0.2,0.2l1-0.8l2.7,2.1l2.6-1.7l2.9,1.7l5.5-3.2V451l1.4-1
				L144.2,449.8L144.2,449.8z M122.2,455.5v-5.1l0.2-0.1l2.3,3.6L122.2,455.5z M127.3,457.2l-2.5,2l-2.6-2.1v-1.2l4.9-3.3v-0.1
				l-2.4-3.7l-5.3,2.9v6.8l-1.1,0.8l0.2,0.2l1-0.8l3.5,2.5l4.7-3.7L127.3,457.2z M119.9,443.6c0-0.3-0.1-0.6-0.2-1h-0.2
				c-0.3,0.9-0.7,1.3-1.7,1.3c-0.9,0-1.6-0.5-1.9-0.9l-3,3.4l0.2,0.2l0.8-1c0.6,0.5,1.1,1,2.5,1v8.6l-6-10.5c-0.5-0.8-1.3-2-2.7-2
				c-1.6,0-3.1,1.4-2.9,3.8h0.3c0.1-0.6,0.4-1.3,1.1-1.3c0.6,0,1.1,0.5,1.4,1v3.4c-1.9,0-3.1,0.9-3.1,2.4c0,0.8,0.4,2.1,1.7,2.4
				v-0.2c-0.2-0.2-0.3-0.4-0.3-0.7c0-0.6,0.4-0.9,1.2-0.9c0.1,0,0.5,0,0.5,0v4.4c-2.2,0-3.9,1.2-3.9,3.3c0,2,1.7,2.9,3.5,2.8v-0.2
				c-1.1-0.1-1.7-0.6-1.7-1.4c0-0.9,0.6-1.4,1.5-1.4c0.8,0,1.6,0.5,2.1,1.1l3-3.3l-0.2-0.2l-0.8,0.9c-1.1-1-1.8-1.4-3.1-1.6v-10.3
				l8.3,14.5h0.6v-14.5C118.4,446.6,119.9,445.4,119.9,443.6L119.9,443.6z M94.9,455.5v-5.1l0.2-0.1l2.3,3.6L94.9,455.5z
				 M100.1,457.2l-2.5,2l-2.6-2.1v-1.2l4.9-3.3v-0.1l-2.4-3.7l-5.3,2.9v6.8l-1.1,0.8l0.2,0.2l1-0.8l3.5,2.5l4.7-3.7L100.1,457.2z
				 M81.2,458.3l-1.4,1l0.2,0.2l0.7-0.5l2.3,2.1l3.1-2.1l-0.1-0.2l-0.8,0.5l-1-1v-7.1l0.8-0.6l1.8,1.4v6.3c0,3.9-0.9,4.5-2.6,5.2
				v0.3c2.9,0.1,5.6-0.9,5.6-5.9v-6.7l0.9-0.7l-0.2-0.2l-0.8,0.6l-2.5-2.2l-3,2.2v-8.5H84l-3.7,2.5v0.2c0.4,0.2,1,0.4,1,1.6v11.6
				H81.2z M70.3,456l-1.3,0.6c-0.7-0.9-1.2-2.2-1.2-3.9c0-0.7,0.1-1.6,0.3-2.2l2.2-1V456z M79.3,444.6c0-2-1.9-2.6-3.5-2.6v0.3
				c1,0,1.7,0.3,1.7,1c0,0.4-0.3,1-1.3,1c-0.8,0-5.9-1.7-7-1.7c-2,0-3.5,1.5-3.5,3.3c0,1.5,1.1,2,1.6,2.2l0.1-0.2
				c-0.3-0.2-0.6-0.4-0.6-1c0-0.4,0.4-1.2,1.4-1.2c0.9,0,6.7,1.6,7.6,1.7v3.2l-1.6,1.3v0.1l1.6,1.4v4.4c-0.8,0.5-1.7,0.6-2.6,0.6
				c-1.5,0-2.9-0.4-4.1-1.6l4.2-2v-7.1l-5.2,2.3c0.5-1.4,1.6-2.3,2.7-2.9l-0.1-0.2c-3.1,0.8-5.9,3.7-5.9,7.2c0,4.2,3.4,7.3,7.3,7.3
				c4.2,0,6.8-3.3,6.8-6.7h-0.2c-0.6,1.3-1.5,2.6-2.7,3.2v-4.3l1.7-1.3v-0.1l-1.6-1.3v-3.2C77.7,447.5,79.3,446.5,79.3,444.6
				L79.3,444.6z"></path>
              </g>
          </g>
          </svg>