<?xml version="1.0" encoding="utf-8"?>
<!-- Generator: Adobe Illustrator 17.1.0, SVG Export Plug-In . SVG Version: 6.00 Build 0)  -->
<!DOCTYPE svg PUBLIC "-//W3C//DTD SVG 1.1//EN" "http://www.w3.org/Graphics/SVG/1.1/DTD/svg11.dtd">
<svg version="1.1" xmlns="http://www.w3.org/2000/svg" xmlns:xlink="http://www.w3.org/1999/xlink" x="0px" y="0px"
	 viewBox="0 0 220 20" enable-background="new 0 0 220 20" xml:space="preserve">  
<g id="_x33_20---Step-1" transform="translate(-54.000000, -2871.000000)">
              <g id="Media-Badges" transform="translate(0.000000, 2333.000000)">
                  <path id="WSJ" fill="#606060" d="M60,538.7h0.6c1.6,0,2.1,2.5,2.3,5.3h0.5v-5.9H54v5.9h0.5c0.2-2.7,0.7-5.3,2.3-5.3h0.6v15.4
				c0,0.7-0.2,1-0.7,1.1l-0.7,0.2v0.5h5.6v-0.5l-0.8-0.2c-0.5-0.1-0.7-0.3-0.7-1.1L60,538.7L60,538.7z M63.9,555.9h5.3v-0.5
				l-0.6-0.1c-0.5-0.1-0.8-0.4-0.8-1.1v-7h3.9v7c0,0.7-0.3,1-0.8,1.1l-0.6,0.1v0.5h5.3v-0.5l-0.6-0.2c-0.5-0.1-0.7-0.4-0.7-1.1
				v-14.3c0-0.7,0.2-1,0.7-1.1l0.6-0.2V538h-5.3v0.5l0.6,0.2c0.4,0.1,0.8,0.3,0.8,1.1v6.6h-3.9v-6.6c0-0.7,0.3-0.9,0.8-1.1l0.6-0.2
				V538h-5.3v0.5l0.6,0.2c0.5,0.2,0.7,0.4,0.7,1.1v14.3c0,0.7-0.2,1-0.7,1.1l-0.6,0.2C63.9,555.4,63.9,555.9,63.9,555.9z M80.1,547
				h0.8c1.2,0,1.5,0.5,1.7,3.3h0.5v-7.2h-0.5c-0.3,2.2-0.6,3.2-1.7,3.2h-0.8v-7.6h1.8c2,0,2.4,2.5,2.7,5.3H85v-5.9h-8.9v0.5l0.6,0.2
				c0.6,0.2,0.7,0.5,0.7,1.1v14.3c0,0.7-0.2,1-0.7,1.1l-0.6,0.2v0.5h9.1v-6h-0.5c-0.3,2.7-0.6,5.3-3,5.3h-1.8V547H80.1z M93.8,555.9
				h1.1l2.4-12.7h-0.4l2.6,12.7h0.9l3.1-14.9c0.3-1.6,0.5-2.1,1.1-2.3l0.5-0.1v-0.5h-3.6v0.5l0.5,0.1c0.8,0.2,1,0.6,0.6,2.5l-2,10
				h0.3l-2.1-10.6c-0.2-1-0.3-1.8,0.5-2l0.6-0.1V538h-5v0.5l0.3,0.1c0.5,0.1,0.6,0.4,0.8,1.4l0.8,3.8l-0.2-2.3L95,551h0.2l-2.1-10.3
				c-0.2-1.1-0.3-1.9,0.5-2l0.4-0.1v-0.5h-5v0.5l0.5,0.1c0.5,0.1,0.7,0.4,1,1.8L93.8,555.9z M108.6,551.1v-0.7h-3.5l-0.1,0.7H108.6z
				 M125.7,539.8c0-0.7,0.2-1,0.7-1.1l0.7-0.2V538h-5.3v0.5l0.6,0.2c0.5,0.2,0.7,0.4,0.7,1.1v14.3c0,0.7-0.2,1-0.7,1.1l-0.6,0.2v0.5
				h8.4V550h-0.5c-0.3,2.7-0.8,5.3-3,5.3h-1L125.7,539.8L125.7,539.8z M142.5,551.3c0-5.3-5.8-6.7-5.8-10.5c0-0.8,0.3-2.1,1.6-2.1
				c1.9,0,2.5,2.4,2.9,5.3h0.5v-5.9h-0.3c-0.1,0.6-0.4,0.8-0.7,0.8c-0.6,0-0.9-0.9-2.3-0.9c-2.2,0-3.7,1.8-3.7,4.2
				c0,4.4,5.8,6.2,5.8,10.2c0,1.8-0.8,2.9-2,2.9c-1.7,0-2.9-2-3.2-5.3h-0.5v5.9h0.3c0.3-0.8,0.6-0.9,0.9-0.9c0.5,0,1,1,2.5,1
				C140.7,556,142.5,554,142.5,551.3z M148.4,538.7h0.6c1.6,0,2.1,2.5,2.3,5.3h0.5v-5.9h-9.3v5.9h0.5c0.2-2.7,0.7-5.3,2.3-5.3h0.6
				v15.4c0,0.7-0.2,1-0.7,1.1l-0.7,0.2v0.5h5.4v-0.5l-0.7-0.2c-0.7-0.2-0.7-0.7-0.7-1.1v-15.4H148.4z M152.4,555.9h5.2v-0.5
				l-0.6-0.1c-0.5-0.1-0.7-0.4-0.7-1.1v-7h1c0.7,0,1.1,0.3,1.2,1.8l0.1,3.3c0.1,3,1,3.8,2.4,3.8c1.5,0,1.9-1,1.9-2.4V553h-0.5v0.4
				c0,1-0.1,1.6-0.5,1.6c-0.3,0-0.4-0.3-0.4-1.4l-0.2-2.3c-0.2-3.1-0.6-4.1-2.8-4.5c2.1-0.6,3.4-2.1,3.4-4.4c0-2.9-2.3-4.3-4.5-4.3
				h-4.9v0.5l0.6,0.2c0.5,0.2,0.7,0.4,0.7,1.1v14.3c0,0.7-0.2,1-0.7,1.1l-0.6,0.2L152.4,555.9L152.4,555.9z M156.2,538.7h0.8
				c1,0,2,0.7,2,4c0,3.4-0.7,3.8-2.2,3.8h-0.6V538.7z M166.8,547h0.8c1.2,0,1.5,0.5,1.7,3.3h0.5v-7.2h-0.5c-0.3,2.2-0.6,3.2-1.7,3.2
				h-0.8v-7.6h1.8c2,0,2.4,2.5,2.7,5.3h0.5v-5.9h-9.1v0.5l0.8,0.2c0.6,0.2,0.7,0.5,0.7,1.1v14.3c0,0.7-0.2,1-0.7,1.1l-0.6,0.2v0.5
				h9.1v-6h-0.5c-0.3,2.7-0.6,5.3-3,5.3h-1.8V547H166.8z M176.5,547h0.8c1.2,0,1.5,0.5,1.7,3.3h0.5v-7.2H179
				c-0.3,2.2-0.6,3.2-1.7,3.2h-0.8v-7.6h1.8c2,0,2.4,2.5,2.7,5.3h0.5v-5.9h-8.9v0.5l0.6,0.2c0.6,0.2,0.7,0.5,0.7,1.1v14.3
				c0,0.7-0.2,1-0.7,1.1l-0.6,0.2v0.5h9.1v-6h-0.5c-0.3,2.7-0.6,5.3-3,5.3h-1.8L176.5,547L176.5,547z M188.2,538.7h0.6
				c1.6,0,2.1,2.5,2.3,5.3h0.5v-5.9h-9.3v5.9h0.5c0.2-2.7,0.7-5.3,2.3-5.3h0.6v15.4c0,0.7-0.2,1-0.7,1.1l-0.7,0.2v0.5h5.6v-0.5
				l-0.8-0.2c-0.5-0.1-0.7-0.3-0.7-1.1v-15.4H188.2z M116.7,539.8c0-0.7,0.2-1,0.7-1.1l0.7-0.2V538h-5.3v0.5l0.6,0.2
				c0.5,0.2,0.7,0.4,0.7,1.1v14.4c0,0.7-0.3,1.1-1.1,1.1c-0.9,0-1.1-0.3-1.4-1.8l-3.3-15.4h-1l-3.1,14.9c-0.4,1.7-0.5,2.1-1.2,2.3
				l-0.4,0.1v0.5h3.7v-0.5l-0.5-0.1c-0.8-0.2-1-0.6-0.6-2.5l1.9-9.6l2,10.2c0.3,1.5,0.3,1.8-0.8,2l-0.5,0.1v0.5h13.6v-6h-0.5
				c-0.3,2.7-0.8,5.3-3,5.3h-1v-15.5H116.7z M202.5,539.8c0-0.7,0.2-1,0.7-1.1l0.6-0.2V538h-5.3v0.5l0.6,0.2
				c0.5,0.1,0.8,0.3,0.8,1.1v12.4c0,1.7-0.2,3.1-1.4,3.1c-0.8,0-1.4-0.6-1.4-1.1c0.1-0.8,1.4-0.7,1.5-2c0.1-0.9-0.5-1.3-1.1-1.4
				c-0.8-0.1-1.8,0.6-1.8,1.9c0,1.7,1.1,3.3,3,3.3c2.1,0,3.8-1.4,3.8-4.2L202.5,539.8L202.5,539.8z M213.5,547c0-4.9-1.6-9-4.8-9
				s-4.7,4.1-4.7,9s1.6,9,4.7,9C212,556,213.5,551.9,213.5,547z M210.7,546.8c0,7.4-0.6,8.5-2,8.5c-1.3,0-1.9-1.1-1.9-8.4
				c0-7.2,0.6-8.2,1.9-8.2C210.1,538.7,210.7,539.7,210.7,546.8z M227.8,538.7h1c1,0,2,0.7,2,4c0,3.4-0.7,3.8-2.2,3.8h-0.8V538.7z
				 M236.1,540.1v12.3c0,1.9,0,2.7-0.9,2.9l-0.5,0.1v0.5h3.8v-0.5c-1.6-0.2-1.6-0.8-1.6-2.8v-11.7l-0.6-0.6l6.3,15.5h1.1v-14.3
				c0-2.1,0-2.6,1-2.9l0.4-0.1V538h-3.9v0.5l0.4,0.1c1.3,0.2,1.3,0.7,1.3,2.7v9l0.3-0.1l-4.8-12.2h-3.7v0.5l0.4,0.1
				C235.4,538.8,235.6,539.3,236.1,540.1z M250.4,551.1v-0.7H247l-0.1,0.7H250.4z M259.1,538.7l0.7-0.2V538h-5.3v0.5l0.6,0.2
				c0.5,0.2,0.7,0.4,0.7,1.1v14.4c0,0.7-0.3,1.1-1.1,1.1c-0.9,0-1.1-0.3-1.4-1.8l-3.3-15.4h-1l-3.1,14.9c-0.4,1.7-0.5,2.1-1.2,2.3
				l-0.4,0.1v0.5h3.7v-0.5l-0.5-0.1c-0.8-0.2-1-0.6-0.6-2.5l1.9-9.6l2,10.1c0.3,1.5,0.3,1.8-0.8,2l-0.5,0.1v0.5h13.6V550h-0.5
				c-0.3,2.7-0.8,5.3-3,5.3h-1v-15.5C258.6,539.8,258.6,538.8,259.1,538.7z M224,555.9h5.2v-0.5l-0.6-0.1c-0.5-0.1-0.7-0.4-0.7-1.1
				v-7h1.2c0.7,0,1.1,0.2,1.2,1.8l0.1,3.3c0.1,3,1,3.8,2.4,3.8c1.5,0,1.9-1,1.9-2.4V553h-0.5v0.4c0,1-0.1,1.6-0.5,1.6
				c-0.3,0-0.4-0.3-0.4-1.4l-0.2-2.3c-0.2-3-0.6-4.1-2.8-4.5c2.1-0.6,3.4-2.1,3.4-4.4c0-2.9-2.3-4.3-4.5-4.3h-8.8v0.5l0.5,0.1
				c0.9,0.2,1,0.7,1,2.8v10.2c0,2.3-0.6,3.4-2.1,3.4c-1.3,0-2-0.6-2-3.1v-12.2c0-0.7,0.2-0.9,0.8-1.1l0.7-0.2V538h-5.4v0.5l0.6,0.2
				c0.5,0.2,0.7,0.4,0.7,1.1v12c0,2.7,1.6,4.2,4,4.2s3.6-1.5,3.6-4.3v-11.2c0-1.4,0.3-1.9,1.4-1.9c0.9,0,1.3,0.3,1.3,1.2v14.3
				c0,0.7-0.2,1-0.7,1.1l-0.6,0.2v0.5H224z M264.9,553.5c-0.6,0-1.1,0.5-1.1,1.2s0.5,1.2,1.1,1.2s1.1-0.5,1.1-1.2
				S265.5,553.5,264.9,553.5z"></path>
              </g>
          </g>
          </svg>